<svg fill="none" height="23" viewBox="0 0 23 23" width="23" xmlns="http://www.w3.org/2000/svg"><g stroke="#000"><path d="m11.8378.8h-.0002c-2.11629-.000034-4.18504.62748-5.94467 1.80319s-3.1311 2.84681-3.94099 4.80198c-.80988 1.95516-1.021799 4.10663-.60896 6.18223.41285 2.0756 1.43191 3.9821 2.92832 5.4786 1.49642 1.4964 3.40297 2.5155 5.47858 2.9284 2.07562.4129 4.22702.201 6.18222-.6089 1.9552-.8098 3.6263-2.1813 4.802-3.9409 1.1758-1.7596 1.8033-3.8283 1.8033-5.9446v-.0002c-.0032-2.83676-1.1315-5.55638-3.1374-7.56227s-4.7255-3.134246-7.5622-3.13753zm-.0005 20.1458c-1.86808-.0001-3.69425-.554-5.24756-1.5919-1.55337-1.0379-2.76408-2.5131-3.47903-4.2391-.71495-1.7259-.90203-3.6252-.53758-5.45748.36444-1.83231 1.26405-3.51539 2.58506-4.83642 1.321-1.32103 3.00408-2.22067 4.83638-2.58515 1.83233-.36448 3.73153-.17743 5.45753.53749s3.2012 1.92561 4.2392 3.47896c1.0378 1.55329 1.5918 3.37945 1.5919 5.2476-.0029 2.5043-.999 4.9052-2.7698 6.676-1.7708 1.7709-4.1717 2.767-6.6761 2.77z" fill="#000" stroke-width=".4"/><g stroke-linecap="round" stroke-linejoin="round" stroke-width="1.5"><path d="m11.936 4.86108v6.27782"/><path d="m16.4032 15.8331-4.4391-4.4391"/></g></g></svg>