<svg width="84" height="84" viewBox="0 0 84 84" fill="none" xmlns="http://www.w3.org/2000/svg">
<path d="M51.5011 31.4411C52.7769 31.4411 53.8848 30.3668 53.8848 29.0574C53.8848 28.4195 53.6498 27.8152 53.1798 27.3452C52.7434 26.8751 52.139 26.6401 51.5347 26.6401C50.1582 26.6737 49.1174 27.7145 49.1174 29.0574C49.1174 30.3668 50.1918 31.4411 51.5011 31.4411Z" fill="url(#paint0_linear)"/>
<path d="M48.4791 55.6811C47.5726 55.6811 46.834 56.4197 46.834 57.3262C46.834 58.2326 47.5726 58.9713 48.4791 58.9713H58.1482C59.0547 58.9713 59.7933 58.2326 59.7933 57.3262C59.7933 56.4197 59.0547 55.6811 58.1482 55.6811H54.9587V38.4244C54.9587 37.5179 54.2201 36.7793 53.3136 36.7793H53.2801H53.2465H49.822C48.9155 36.7793 48.1769 37.5179 48.1769 38.4244C48.1769 39.3309 48.9155 40.0695 49.822 40.0695H51.7021V55.6811H48.4791Z" fill="url(#paint1_linear)"/>
<path d="M26.556 80.4243C27.261 80.6929 28.0332 80.8608 28.8054 80.8608C29.6111 80.8608 30.4169 80.6929 31.1891 80.3908C32.297 79.9207 33.2706 79.4171 33.9757 79.0143C34.1435 78.9135 34.3114 78.8128 34.4121 78.7457C36.6951 77.2349 37.6687 74.5826 37.0644 71.6953L36.9973 71.4603C36.0236 67.0286 35.0836 62.8655 34.11 58.6688C33.8078 57.2252 33.1028 56.0165 32.0956 55.0429C31.0212 54.0357 29.6447 53.4314 27.9325 53.23H27.7982C27.0931 53.1628 26.321 53.0621 25.4816 53.1964C24.0715 53.3978 22.5272 53.5993 20.7142 53.9014C19.4049 51.2491 15.7454 40.8078 19.942 30.098C21.1507 30.1987 22.4936 30.2994 24.0044 30.3666C25.0452 30.4001 26.0859 30.2994 27.3953 29.9972C30.0476 29.3929 31.9948 27.4457 32.5656 24.827C32.767 23.9205 32.9013 23.0476 33.0356 22.2082L33.4721 19.1531C33.8414 16.4672 34.2443 13.6806 34.58 10.9276C34.9157 8.34247 33.9757 6.59665 33.0692 5.55588C32.9013 5.35444 32.6999 5.153 32.5656 5.01871C32.0284 4.51511 31.357 4.07866 30.5512 3.67578C28.9732 2.90359 27.1267 2.87002 25.4816 3.57506C17.0547 7.20097 9.97076 13.5799 5.50551 21.5703C2.04746 27.7143 0.200928 34.6975 0.200928 41.815C0.200928 50.9134 3.08823 59.5082 8.56068 66.7264C13.2274 72.9039 19.4384 77.6378 26.556 80.4243ZM8.39281 23.1819C12.5223 15.8293 19.0356 9.95398 26.791 6.6638C27.1603 6.49593 27.5632 6.42879 27.9325 6.42879C28.3354 6.42879 28.7718 6.52951 29.1411 6.69737C29.6111 6.93239 30.014 7.20097 30.3498 7.50313C30.4505 7.57028 30.5176 7.671 30.5848 7.73815C31.2227 8.47676 31.4577 9.38324 31.2898 10.5247C30.9541 13.2777 30.5512 16.0308 30.1819 18.7166L29.7454 21.7718C29.6447 22.544 29.5104 23.3497 29.3426 24.1555C29.0404 25.5656 28.0668 26.5056 26.6567 26.8078C25.6495 27.0428 24.8437 27.1099 24.1387 27.0764C22.1914 26.9756 20.5799 26.8749 19.0691 26.7071L17.8605 26.5728L17.3569 27.6807C11.5823 40.64 16.719 53.0957 17.3233 54.4722C18.2969 56.7216 18.9013 57.0573 19.4049 57.2588L19.8077 57.3931L20.2106 57.3259C22.4265 56.9566 24.2394 56.688 25.8845 56.453C26.3545 56.3859 26.8581 56.4194 27.4289 56.4866H27.5632C28.5032 56.5873 29.2418 56.923 29.779 57.3931C30.3162 57.8967 30.6855 58.5681 30.8534 59.3403V59.3739C31.827 63.537 32.767 67.7001 33.7407 72.1317L33.8078 72.3667C34.1435 73.9111 33.7071 75.1869 32.4649 76.0262C32.3642 76.0934 32.297 76.1605 32.2634 76.1605C31.7263 76.4627 30.8869 76.8991 29.9133 77.302C29.2083 77.5706 28.4361 77.6042 27.731 77.3356C21.1842 74.784 15.4432 70.4195 11.1458 64.7456C6.17697 58.0981 3.49111 50.1748 3.49111 41.815C3.49111 35.2683 5.20335 28.8558 8.39281 23.1819Z" fill="url(#paint2_linear)"/>
<path d="M42.2014 0.18457C40.4891 0.18457 38.844 0.28529 37.2661 0.48673C36.3596 0.58745 35.7217 1.42678 35.856 2.33326C35.9567 3.23974 36.796 3.87763 37.7025 3.74334C39.1462 3.57547 40.657 3.47475 42.2014 3.47475C63.4197 3.47475 80.7099 20.765 80.7099 41.9833C80.7099 63.2017 63.4197 80.4919 42.2014 80.4919C41.2613 80.4919 40.3212 80.4583 39.3812 80.3912C38.4747 80.324 37.669 80.9955 37.6018 81.902C37.5347 82.8085 38.2061 83.6142 39.1126 83.6814C40.1198 83.7485 41.1606 83.8157 42.2014 83.8157C65.2662 83.8157 84.0001 65.0482 84.0001 42.0169C84.0001 18.9856 65.2326 0.18457 42.2014 0.18457Z" fill="url(#paint3_linear)"/>
<path d="M8.05696 32.146C8.22483 32.146 8.3927 32.0788 8.52699 31.9445L28.671 11.767C28.9396 11.4984 28.9396 11.0955 28.671 10.8269C28.4024 10.5583 27.9995 10.5583 27.7309 10.8269L7.58694 31.0045C7.31835 31.2731 7.31835 31.6759 7.58694 31.9445C7.68766 32.0788 7.85552 32.146 8.05696 32.146Z" fill="url(#paint4_linear)"/>
<path d="M12.455 45.1726C12.1864 44.904 11.7835 44.904 11.515 45.1726L7.01614 49.6715C6.74755 49.94 6.74755 50.3429 7.01614 50.6115C7.15043 50.7458 7.3183 50.8129 7.48616 50.8129C7.65403 50.8129 7.8219 50.7458 7.95619 50.6115L12.455 46.1127C12.7236 45.8441 12.7236 45.4076 12.455 45.1726Z" fill="url(#paint5_linear)"/>
<path d="M12.7571 62.9661C12.8914 63.1004 13.0593 63.1676 13.2271 63.1676C13.395 63.1676 13.5629 63.1004 13.6972 62.9661L17.1888 59.4745C17.4574 59.2059 17.4574 58.803 17.1888 58.5344C16.9202 58.2659 16.5173 58.2659 16.2487 58.5344L12.7571 62.0261C12.4885 62.2947 12.4885 62.6975 12.7571 62.9661Z" fill="url(#paint6_linear)"/>
<path d="M22.4937 71.998C22.6616 71.998 22.8295 71.9309 22.9638 71.7966L29.5441 65.2162C29.8127 64.9476 29.8127 64.5447 29.5441 64.2761C29.2755 64.0076 28.8727 64.0076 28.6041 64.2761L22.0237 70.8565C21.7551 71.1251 21.7551 71.528 22.0237 71.7966C22.158 71.9309 22.3259 71.998 22.4937 71.998Z" fill="url(#paint7_linear)"/>
<defs>
<linearGradient id="paint0_linear" x1="49.1189" y1="29.0436" x2="53.8841" y2="29.0436" gradientUnits="userSpaceOnUse">
<stop stop-color="#6011CA"/>
<stop offset="0.1959" stop-color="#571CCD"/>
<stop offset="0.535" stop-color="#4038D6"/>
<stop offset="0.9743" stop-color="#1A65E3"/>
<stop offset="1" stop-color="#1868E4"/>
</linearGradient>
<linearGradient id="paint1_linear" x1="46.8378" y1="47.8889" x2="59.7913" y2="47.8889" gradientUnits="userSpaceOnUse">
<stop stop-color="#6011CA"/>
<stop offset="0.1959" stop-color="#571CCD"/>
<stop offset="0.535" stop-color="#4038D6"/>
<stop offset="0.9743" stop-color="#1A65E3"/>
<stop offset="1" stop-color="#1868E4"/>
</linearGradient>
<linearGradient id="paint2_linear" x1="0.211963" y1="42.0133" x2="37.2343" y2="42.0133" gradientUnits="userSpaceOnUse">
<stop stop-color="#6011CA"/>
<stop offset="0.1959" stop-color="#571CCD"/>
<stop offset="0.535" stop-color="#4038D6"/>
<stop offset="0.9743" stop-color="#1A65E3"/>
<stop offset="1" stop-color="#1868E4"/>
</linearGradient>
<linearGradient id="paint3_linear" x1="35.8525" y1="42.0514" x2="83.9928" y2="42.0514" gradientUnits="userSpaceOnUse">
<stop stop-color="#6011CA"/>
<stop offset="0.1959" stop-color="#571CCD"/>
<stop offset="0.535" stop-color="#4038D6"/>
<stop offset="0.9743" stop-color="#1A65E3"/>
<stop offset="1" stop-color="#1868E4"/>
</linearGradient>
<linearGradient id="paint4_linear" x1="7.3919" y1="21.3989" x2="28.8691" y2="21.3989" gradientUnits="userSpaceOnUse">
<stop stop-color="#6011CA"/>
<stop offset="0.1959" stop-color="#571CCD"/>
<stop offset="0.535" stop-color="#4038D6"/>
<stop offset="0.9743" stop-color="#1A65E3"/>
<stop offset="1" stop-color="#1868E4"/>
</linearGradient>
<linearGradient id="paint5_linear" x1="6.81644" y1="47.8957" x2="12.6556" y2="47.8957" gradientUnits="userSpaceOnUse">
<stop stop-color="#6011CA"/>
<stop offset="0.1959" stop-color="#571CCD"/>
<stop offset="0.535" stop-color="#4038D6"/>
<stop offset="0.9743" stop-color="#1A65E3"/>
<stop offset="1" stop-color="#1868E4"/>
</linearGradient>
<linearGradient id="paint6_linear" x1="12.5571" y1="60.7533" x2="17.3895" y2="60.7533" gradientUnits="userSpaceOnUse">
<stop stop-color="#6011CA"/>
<stop offset="0.1959" stop-color="#571CCD"/>
<stop offset="0.535" stop-color="#4038D6"/>
<stop offset="0.9743" stop-color="#1A65E3"/>
<stop offset="1" stop-color="#1868E4"/>
</linearGradient>
<linearGradient id="paint7_linear" x1="21.8246" y1="68.0412" x2="29.7444" y2="68.0412" gradientUnits="userSpaceOnUse">
<stop stop-color="#6011CA"/>
<stop offset="0.1959" stop-color="#571CCD"/>
<stop offset="0.535" stop-color="#4038D6"/>
<stop offset="0.9743" stop-color="#1A65E3"/>
<stop offset="1" stop-color="#1868E4"/>
</linearGradient>
</defs>
</svg>
