<svg width="27" height="22" viewBox="0 0 27 22" fill="none" xmlns="http://www.w3.org/2000/svg">
<path d="M21.2083 6.23292L21.2056 6.23101L21.1468 6.27701L14.6564 11.3559L14.6562 11.3557L14.6518 11.3597L14.5826 11.4208L14.5825 11.4206L14.5782 11.4249C14.332 11.6706 13.9984 11.8086 13.6507 11.8086C13.3029 11.8086 12.9693 11.6706 12.7231 11.4249L12.7236 11.4244L12.7142 11.417L6.15458 6.27705L6.15434 6.27686C5.97403 6.13649 5.74541 6.07335 5.51862 6.10129C5.29183 6.12923 5.08537 6.24597 4.94452 6.42591C4.80368 6.60585 4.73994 6.8343 4.76729 7.06117C4.79464 7.28803 4.91084 7.49479 5.09042 7.63611L5.09063 7.63628L11.5436 12.6854C12.11 13.2296 12.8651 13.5337 13.6507 13.5337C14.4363 13.5337 15.1913 13.2296 15.7577 12.6854L22.2105 7.63645C22.3001 7.56671 22.375 7.47998 22.4311 7.38123C22.4871 7.28248 22.523 7.17365 22.5369 7.06097C22.5508 6.9483 22.5423 6.83399 22.512 6.7246C22.4816 6.61521 22.4299 6.51288 22.36 6.42348C22.29 6.33408 22.2031 6.25937 22.1042 6.20362L22.1042 6.20362C22.0053 6.14787 21.8963 6.11217 21.7836 6.09859C21.6709 6.085 21.5566 6.09378 21.4473 6.12443C21.3624 6.14824 21.2818 6.18486 21.2083 6.23292Z" fill="url(#paint0_linear)" stroke="url(#paint1_linear)" stroke-width="0.2"/>
<path d="M22.9956 1.08066H22.9955L4.306 1.08066L4.3059 1.08066C3.40295 1.08163 2.53725 1.44074 1.89874 2.07919C1.26023 2.71765 0.90105 3.58331 0.9 4.48626V4.48637L0.9 17.875L0.9 17.8751C0.901049 18.778 1.26023 19.6437 1.89874 20.2821C2.53725 20.9206 3.40295 21.2797 4.3059 21.2807H4.306H22.9955H22.9956C23.8985 21.2797 24.7641 20.9205 25.4025 20.2821C26.0409 19.6436 26.3999 18.7779 26.4009 17.8751V17.875V4.48637V4.48627C26.3999 3.58339 26.0409 2.71774 25.4025 2.07927C24.7641 1.4408 23.8985 1.08166 22.9956 1.08066ZM24.6748 17.8748C24.6743 18.3202 24.4972 18.7471 24.1824 19.062C23.8675 19.3769 23.4406 19.5541 22.9953 19.5546H4.30611C3.86073 19.5541 3.43372 19.377 3.11876 19.0621C2.80382 18.7472 2.62662 18.3203 2.62604 17.8749C2.62604 17.8749 2.62604 17.8749 2.62604 17.8748V4.4865C2.62604 4.48647 2.62604 4.48644 2.62604 4.48641C2.62662 4.04105 2.80382 3.61411 3.11876 3.29922C3.43369 2.98434 3.86066 2.80722 4.306 2.8067C4.30604 2.8067 4.30608 2.8067 4.30611 2.8067H22.9953C22.9954 2.8067 22.9954 2.8067 22.9954 2.8067C23.4407 2.80728 23.8676 2.98445 24.1824 3.29933C24.4972 3.61424 24.6743 4.04117 24.6748 4.48648V17.8748Z" fill="url(#paint2_linear)" stroke="url(#paint3_linear)" stroke-width="0.2"/>
<defs>
<linearGradient id="paint0_linear" x1="4.86632" y1="9.81746" x2="22.4407" y2="9.81746" gradientUnits="userSpaceOnUse">
<stop stop-color="#6011CA"/>
<stop offset="0.1959" stop-color="#571CCD"/>
<stop offset="0.535" stop-color="#4038D6"/>
<stop offset="0.9743" stop-color="#1A65E3"/>
<stop offset="1" stop-color="#1868E4"/>
</linearGradient>
<linearGradient id="paint1_linear" x1="4.86632" y1="9.81746" x2="22.4407" y2="9.81746" gradientUnits="userSpaceOnUse">
<stop stop-color="#6011CA"/>
<stop offset="0.1959" stop-color="#571CCD"/>
<stop offset="0.535" stop-color="#4038D6"/>
<stop offset="0.9743" stop-color="#1A65E3"/>
<stop offset="1" stop-color="#1868E4"/>
</linearGradient>
<linearGradient id="paint2_linear" x1="1.00754" y1="11.1929" x2="26.297" y2="11.1929" gradientUnits="userSpaceOnUse">
<stop stop-color="#6011CA"/>
<stop offset="0.1959" stop-color="#571CCD"/>
<stop offset="0.535" stop-color="#4038D6"/>
<stop offset="0.9743" stop-color="#1A65E3"/>
<stop offset="1" stop-color="#1868E4"/>
</linearGradient>
<linearGradient id="paint3_linear" x1="1.00754" y1="11.1929" x2="26.297" y2="11.1929" gradientUnits="userSpaceOnUse">
<stop stop-color="#6011CA"/>
<stop offset="0.1959" stop-color="#571CCD"/>
<stop offset="0.535" stop-color="#4038D6"/>
<stop offset="0.9743" stop-color="#1A65E3"/>
<stop offset="1" stop-color="#1868E4"/>
</linearGradient>
</defs>
</svg>
