<svg width="23" height="28" viewBox="0 0 23 28" fill="none" xmlns="http://www.w3.org/2000/svg">
<path fill-rule="evenodd" clip-rule="evenodd" d="M11.4231 2.43068C8.99941 2.43068 6.675 3.3789 4.96121 5.06674C3.24741 6.75458 2.28462 9.04378 2.28462 11.4307C2.28462 14.9161 4.58721 18.2981 7.11195 20.9227C8.35097 22.2108 9.59386 23.2652 10.5283 23.998C10.876 24.2708 11.1798 24.4979 11.4231 24.675C11.6664 24.4979 11.9701 24.2708 12.3179 23.998C13.2523 23.2652 14.4952 22.2108 15.7342 20.9227C18.2589 18.2981 20.5615 14.9161 20.5615 11.4307C20.5615 9.04378 19.5987 6.75458 17.8849 5.06674C16.1711 3.3789 13.8467 2.43068 11.4231 2.43068ZM11.4231 26.0559C10.7894 26.9919 10.7888 26.9915 10.7888 26.9915L10.7856 26.9894L10.7779 26.9843L10.7518 26.9669C10.7295 26.952 10.6978 26.9307 10.6572 26.903C10.5761 26.8476 10.4595 26.767 10.3125 26.6625C10.0187 26.4534 9.60265 26.1484 9.10513 25.7582C8.11191 24.9793 6.78461 23.854 5.45343 22.4702C2.83779 19.751 0 15.8205 0 11.4307C6.80868e-08 8.44704 1.2035 5.58554 3.34574 3.47574C5.48798 1.36594 8.39349 0.180664 11.4231 0.180664C14.4527 0.180664 17.3582 1.36594 19.5004 3.47574C21.6427 5.58554 22.8462 8.44704 22.8462 11.4307C22.8462 15.8205 20.0084 19.751 17.3927 22.4702C16.0615 23.854 14.7342 24.9793 13.741 25.7582C13.2435 26.1484 12.8275 26.4534 12.5336 26.6625C12.3867 26.767 12.2701 26.8476 12.1889 26.903C12.1484 26.9307 12.1166 26.952 12.0944 26.9669L12.0682 26.9843L12.0606 26.9894L12.0582 26.991C12.0582 26.991 12.0567 26.9919 11.4231 26.0559ZM11.4231 26.0559L12.0567 26.9919C11.673 27.2438 11.1725 27.2434 10.7888 26.9915L11.4231 26.0559Z" fill="url(#paint0_linear)"/>
<path fill-rule="evenodd" clip-rule="evenodd" d="M11.4231 9.18073C10.1613 9.18073 9.13846 10.1881 9.13846 11.4307C9.13846 12.6734 10.1613 13.6808 11.4231 13.6808C12.6848 13.6808 13.7077 12.6734 13.7077 11.4307C13.7077 10.1881 12.6848 9.18073 11.4231 9.18073ZM6.85385 11.4307C6.85385 8.94545 8.89956 6.93071 11.4231 6.93071C13.9466 6.93071 15.9923 8.94545 15.9923 11.4307C15.9923 13.916 13.9466 15.9308 11.4231 15.9308C8.89956 15.9308 6.85385 13.916 6.85385 11.4307Z" fill="url(#paint1_linear)"/>
<defs>
<linearGradient id="paint0_linear" x1="0.00680696" y1="13.6972" x2="22.8427" y2="13.6972" gradientUnits="userSpaceOnUse">
<stop stop-color="#6011CA"/>
<stop offset="0.1959" stop-color="#571CCD"/>
<stop offset="0.535" stop-color="#4038D6"/>
<stop offset="0.9743" stop-color="#1A65E3"/>
<stop offset="1" stop-color="#1868E4"/>
</linearGradient>
<linearGradient id="paint1_linear" x1="0.00680696" y1="13.6972" x2="22.8427" y2="13.6972" gradientUnits="userSpaceOnUse">
<stop stop-color="#6011CA"/>
<stop offset="0.1959" stop-color="#571CCD"/>
<stop offset="0.535" stop-color="#4038D6"/>
<stop offset="0.9743" stop-color="#1A65E3"/>
<stop offset="1" stop-color="#1868E4"/>
</linearGradient>
</defs>
</svg>
