<svg width="30" height="30" viewBox="0 0 30 30" fill="none" xmlns="http://www.w3.org/2000/svg">
<path d="M29.3396 14.7705C29.3396 6.71052 22.8042 0.180664 14.7497 0.180664C6.68977 0.180664 0.159912 6.71052 0.159912 14.7705C0.159912 22.0508 5.4934 28.0873 12.4701 29.1807V18.9888H8.76517V14.7714H12.4701V11.5553C12.4701 7.89959 14.6449 5.88072 17.9786 5.88072C19.5753 5.88072 21.2468 6.16523 21.2468 6.16523V9.75523H19.4039C17.5947 9.75523 17.0294 10.8814 17.0294 12.0349V14.7705H21.0753L20.4252 18.9879H17.0294V29.1798C24.0006 28.0864 29.3396 22.0499 29.3396 14.7696V14.7705Z" fill="url(#paint0_linear)"/>
<defs>
<linearGradient id="paint0_linear" x1="0.168606" y1="14.6985" x2="29.3351" y2="14.6985" gradientUnits="userSpaceOnUse">
<stop stop-color="#6011CA"/>
<stop offset="0.1959" stop-color="#571CCD"/>
<stop offset="0.535" stop-color="#4038D6"/>
<stop offset="0.9743" stop-color="#1A65E3"/>
<stop offset="1" stop-color="#1868E4"/>
</linearGradient>
</defs>
</svg>
