<svg width="38" height="50" viewBox="0 0 38 50" fill="none" xmlns="http://www.w3.org/2000/svg">
<path d="M37.4079 20.0902C37.4079 18.2862 35.9114 18.1837 35.3989 18.1427C34.9889 18.1222 34.5994 18.0812 34.1893 18.0402L33.6563 17.9787C33.1028 17.9172 32.6313 18.3067 32.5698 18.8602C32.5083 19.3932 32.8978 19.8852 33.4513 19.9467L34.0048 20.0082C34.4148 20.0492 34.8454 20.0697 35.2554 20.1107C35.3169 20.1107 35.3784 20.1107 35.4194 20.1312C35.4399 20.7052 35.4399 21.1972 35.4194 21.6892V22.5502C35.3784 25.0308 35.1324 27.2858 34.7019 29.4383C33.9023 33.0669 32.6108 36.1214 30.7453 38.766C27.9778 42.702 23.9802 45.7976 18.8346 47.9911C18.8141 47.9911 18.7731 48.0116 18.7116 48.0116C18.6501 48.0116 18.6091 48.0116 18.6091 48.0116C13.4431 45.8386 9.425 42.7225 6.67797 38.7865C4.81244 36.1419 3.52092 33.0874 2.72141 29.4793C2.27041 27.3268 2.0244 25.0513 2.0039 22.5912V21.6687C1.9834 21.1972 1.9834 20.7257 2.0039 20.1517C2.0449 20.1517 2.0859 20.1517 2.1474 20.1312C2.70091 20.0902 3.23392 20.0492 3.76693 19.9877C4.01293 19.9672 4.23843 19.9467 4.48444 19.9057C5.01744 19.8442 5.40695 19.3522 5.34545 18.7987C5.28395 18.2657 4.79194 17.8762 4.23843 17.9377C4.01293 17.9582 3.78743 17.9787 3.56192 18.0197C3.04942 18.0812 2.53691 18.1222 2.0039 18.1427C1.5119 18.1837 0.0153752 18.2862 0.0153752 20.0492C-0.00512507 20.6642 -0.00512507 21.1972 0.0153752 21.6892V22.5912C0.0563758 25.1948 0.302379 27.5728 0.794386 29.8688C1.6554 33.7639 3.04942 37.0439 5.05844 39.914C8.05149 44.178 12.3565 47.5196 17.9531 49.8771C18.1786 49.9591 18.4451 50.0001 18.7116 50.0001C19.0806 50.0001 19.3471 49.9386 19.5521 49.8566C25.0667 47.5196 29.3923 44.1985 32.3853 39.9345C34.3943 37.0849 35.7884 33.7844 36.6494 29.8893C37.1209 27.6138 37.3669 25.2358 37.4079 22.5912V21.7302C37.4079 21.1972 37.4079 20.6642 37.4079 20.0902Z" fill="url(#paint0_linear)"/>
<path d="M5.98091 23.3088C5.98091 23.0833 5.79641 22.9193 5.5709 22.9193C5.3454 22.9193 5.1814 23.1038 5.1814 23.3293C5.2429 25.2769 5.4684 27.0604 5.8169 28.8029C6.51391 31.9805 7.64143 34.625 9.26095 36.921C11.434 40.0166 14.55 42.5586 18.5066 44.4446L18.6706 44.5266L18.8346 44.4446C22.7911 42.5586 25.9072 40.0166 28.0802 36.921C29.6997 34.625 30.8272 31.96 31.5448 28.7414C31.8933 27.0194 32.0983 25.2154 32.1803 23.2268C32.1803 23.0013 32.0163 22.8168 31.7908 22.8168C31.5858 22.8168 31.3808 22.9808 31.3808 23.2063C31.3193 25.1539 31.1143 26.9169 30.7657 28.5979C30.0687 31.714 28.9822 34.297 27.4447 36.4905C25.3742 39.4426 22.4221 41.8411 18.6706 43.6656C14.919 41.8411 11.967 39.4221 9.89646 36.47C8.35894 34.2765 7.27243 31.714 6.59592 28.6389C6.26791 26.9579 6.06291 25.2154 5.98091 23.3088Z" fill="url(#paint1_linear)"/>
<path d="M7.78516 18.3479C7.88766 18.7989 8.29767 19.1064 8.74867 19.1064C8.83068 19.1064 8.91268 19.1064 8.97418 19.0859C10.8602 18.6349 12.6642 17.9993 14.3658 17.2408L18.6708 21.5459L22.9759 17.2408C24.6979 17.9993 26.5019 18.6349 28.3674 19.0859C28.4494 19.1064 28.5314 19.1064 28.5929 19.1064C29.044 19.1064 29.454 18.7989 29.5565 18.3479C29.6795 17.8148 29.3515 17.2818 28.8184 17.1588C26.8504 16.6873 24.9439 16.0108 23.1604 15.1703H23.1399C23.0784 15.1498 22.9964 15.1293 22.9349 15.1088C22.8734 15.1088 22.8324 15.0883 22.7709 15.0678C22.7094 15.0678 22.6479 15.0883 22.5659 15.0883C22.5044 15.1088 22.4429 15.1088 22.4019 15.1293C22.3404 15.1498 22.2994 15.1908 22.2379 15.2113C22.1764 15.2523 22.1149 15.2728 22.0739 15.3343C22.0739 15.3343 22.0534 15.3343 22.0534 15.3548L18.6913 18.7579L15.3088 15.3548C15.3088 15.3548 15.2883 15.3548 15.2883 15.3343C15.2268 15.2728 15.1653 15.2523 15.1038 15.2113C15.0628 15.1908 15.0218 15.1498 14.9603 15.1293C14.8988 15.1088 14.8373 15.1088 14.7758 15.0883C14.7143 15.0678 14.6528 15.0678 14.5913 15.0678C14.5503 15.0678 14.4888 15.0883 14.4478 15.0883C14.3658 15.1088 14.2838 15.1088 14.2222 15.1498H14.2017C12.4387 15.9903 10.5322 16.6463 8.54367 17.1383C7.99016 17.2818 7.66216 17.8148 7.78516 18.3479Z" fill="url(#paint2_linear)"/>
<path d="M13.9965 9.94264C14.3655 10.7011 14.8985 11.3982 15.6365 12.0747C16.4566 12.8332 17.5021 13.2227 18.6501 13.2227H18.7731C19.8596 13.2227 20.9051 12.8127 21.7251 12.0747C22.4631 11.4187 22.9962 10.7216 23.3652 9.94264C24.0827 8.44612 24.4517 6.90859 24.4722 5.39157V5.24807C24.4722 5.04307 24.4722 4.83807 24.4517 4.63306C24.2467 2.64454 23.0782 1.14802 21.1511 0.430506C20.3926 0.143502 19.5521 0 18.6501 0C17.7686 0 16.9486 0.164002 16.1696 0.430506C14.2425 1.14802 13.074 2.64454 12.869 4.63306C12.8485 4.83807 12.8485 5.04307 12.8485 5.22757V5.39157C12.91 6.90859 13.279 8.44612 13.9965 9.94264ZM14.878 4.83807C15.001 3.60805 15.6775 2.74704 16.8871 2.29603C17.4406 2.09103 18.0556 1.98853 18.6706 1.98853C19.3266 1.98853 19.9416 2.09103 20.4951 2.29603C21.7046 2.74704 22.3811 3.60805 22.5041 4.83807C22.5246 4.96107 22.5041 5.08407 22.5041 5.20707V5.37107C22.4836 6.60109 22.1966 7.85161 21.6021 9.08162C21.3356 9.61463 20.9461 10.1271 20.4131 10.6191C19.9621 11.0292 19.3881 11.2547 18.8141 11.2547H18.5476C17.9531 11.2342 17.3996 11.0087 16.9691 10.6191C16.4361 10.1271 16.0261 9.63513 15.7801 9.10212C15.1855 7.87211 14.878 6.62159 14.878 5.39157V5.20707C14.8575 5.06357 14.8575 4.94057 14.878 4.83807Z" fill="url(#paint3_linear)"/>
<defs>
<linearGradient id="paint0_linear" x1="0.0111456" y1="33.9854" x2="37.4022" y2="33.9854" gradientUnits="userSpaceOnUse">
<stop stop-color="#6011CA"/>
<stop offset="0.1959" stop-color="#571CCD"/>
<stop offset="0.535" stop-color="#4038D6"/>
<stop offset="0.9743" stop-color="#1A65E3"/>
<stop offset="1" stop-color="#1868E4"/>
</linearGradient>
<linearGradient id="paint1_linear" x1="5.18944" y1="33.685" x2="32.1762" y2="33.685" gradientUnits="userSpaceOnUse">
<stop stop-color="#6011CA"/>
<stop offset="0.1959" stop-color="#571CCD"/>
<stop offset="0.535" stop-color="#4038D6"/>
<stop offset="0.9743" stop-color="#1A65E3"/>
<stop offset="1" stop-color="#1868E4"/>
</linearGradient>
<linearGradient id="paint2_linear" x1="7.7659" y1="18.3108" x2="29.579" y2="18.3108" gradientUnits="userSpaceOnUse">
<stop stop-color="#6011CA"/>
<stop offset="0.1959" stop-color="#571CCD"/>
<stop offset="0.535" stop-color="#4038D6"/>
<stop offset="0.9743" stop-color="#1A65E3"/>
<stop offset="1" stop-color="#1868E4"/>
</linearGradient>
<linearGradient id="paint3_linear" x1="12.852" y1="6.61945" x2="24.4704" y2="6.61945" gradientUnits="userSpaceOnUse">
<stop stop-color="#6011CA"/>
<stop offset="0.1959" stop-color="#571CCD"/>
<stop offset="0.535" stop-color="#4038D6"/>
<stop offset="0.9743" stop-color="#1A65E3"/>
<stop offset="1" stop-color="#1868E4"/>
</linearGradient>
</defs>
</svg>
