<svg width="30" height="30" viewBox="0 0 30 30" fill="none" xmlns="http://www.w3.org/2000/svg">
<path d="M19.1112 14.6807C19.1112 15.8824 18.6338 17.035 17.784 17.8847C16.9343 18.7345 15.7817 19.2119 14.58 19.2119C13.3782 19.2119 12.2257 18.7345 11.3759 17.8847C10.5261 17.035 10.0487 15.8824 10.0487 14.6807C10.0487 14.4224 10.0759 14.1701 10.1227 13.9255H8.53829V19.9626C8.53829 20.3825 8.87813 20.7223 9.29803 20.7223H19.8634C20.0646 20.7219 20.2575 20.6417 20.3996 20.4993C20.5418 20.3568 20.6216 20.1638 20.6216 19.9626V13.9255H19.0372C19.084 14.1701 19.1112 14.4224 19.1112 14.6807ZM14.58 17.7015C14.9768 17.7014 15.3697 17.6231 15.7362 17.4712C16.1028 17.3193 16.4358 17.0966 16.7163 16.816C16.9968 16.5353 17.2193 16.2022 17.3711 15.8355C17.5228 15.4689 17.6009 15.076 17.6008 14.6792C17.6007 14.2824 17.5224 13.8895 17.3705 13.5229C17.2186 13.1563 16.9959 12.8233 16.7153 12.5428C16.4346 12.2623 16.1014 12.0398 15.7348 11.888C15.3682 11.7363 14.9752 11.6582 14.5784 11.6583C13.7771 11.6585 13.0086 11.9771 12.4421 12.5439C11.8756 13.1107 11.5574 13.8793 11.5576 14.6807C11.5578 15.482 11.8763 16.2505 12.4431 16.817C13.0099 17.3835 13.7786 17.7017 14.58 17.7015ZM18.205 11.5088H20.0159C20.1363 11.5088 20.2517 11.4611 20.3369 11.3762C20.4221 11.2912 20.4702 11.176 20.4706 11.0557V9.24467C20.4706 9.1241 20.4227 9.00846 20.3374 8.9232C20.2522 8.83794 20.1365 8.79004 20.0159 8.79004H18.205C18.0844 8.79004 17.9687 8.83794 17.8835 8.9232C17.7982 9.00846 17.7503 9.1241 17.7503 9.24467V11.0557C17.7518 11.3049 17.9557 11.5088 18.205 11.5088ZM14.58 0.180664C10.7343 0.180664 7.04618 1.70834 4.32691 4.42762C1.60763 7.14689 0.0799561 10.835 0.0799561 14.6807C0.0799561 18.5263 1.60763 22.2144 4.32691 24.9337C7.04618 27.653 10.7343 29.1807 14.58 29.1807C16.4841 29.1807 18.3696 28.8056 20.1289 28.0769C21.8881 27.3482 23.4866 26.2802 24.833 24.9337C26.1795 23.5873 27.2475 21.9888 27.9762 20.2296C28.7049 18.4704 29.08 16.5848 29.08 14.6807C29.08 12.7765 28.7049 10.891 27.9762 9.13175C27.2475 7.37253 26.1795 5.77406 24.833 4.42762C23.4866 3.08117 21.8881 2.0131 20.1289 1.28441C18.3696 0.555718 16.4841 0.180664 14.58 0.180664ZM22.132 20.5547C22.132 21.4775 21.3768 22.2327 20.454 22.2327H8.70595C7.78308 22.2327 7.02787 21.4775 7.02787 20.5547V8.80665C7.02787 7.88379 7.78308 7.12858 8.70595 7.12858H20.454C21.3768 7.12858 22.132 7.88379 22.132 8.80665V20.5547Z" fill="url(#paint0_linear)"/>
<defs>
<linearGradient id="paint0_linear" x1="0.0885965" y1="14.6985" x2="29.0755" y2="14.6985" gradientUnits="userSpaceOnUse">
<stop stop-color="#6011CA"/>
<stop offset="0.1959" stop-color="#571CCD"/>
<stop offset="0.535" stop-color="#4038D6"/>
<stop offset="0.9743" stop-color="#1A65E3"/>
<stop offset="1" stop-color="#1868E4"/>
</linearGradient>
</defs>
</svg>
