<svg width="19" height="22" viewBox="0 0 19 22" fill="none" xmlns="http://www.w3.org/2000/svg">
<path fill-rule="evenodd" clip-rule="evenodd" d="M9.64509 1.83335C7.67025 1.83335 5.77629 2.60597 4.37987 3.98125C2.98344 5.35652 2.19894 7.2218 2.19894 9.16674C2.19894 12.0066 4.07513 14.7623 6.13233 16.9009C7.14189 17.9505 8.15462 18.8097 8.916 19.4068C9.19936 19.629 9.44686 19.8141 9.64509 19.9584C9.84332 19.8141 10.0908 19.629 10.3742 19.4068C11.1356 18.8097 12.1483 17.9505 13.1579 16.9009C15.2151 14.7623 17.0912 12.0066 17.0912 9.16674C17.0912 7.2218 16.3067 5.35652 14.9103 3.98125C13.5139 2.60597 11.6199 1.83335 9.64509 1.83335ZM9.64509 21.0835C9.1288 21.8462 9.12829 21.8459 9.12829 21.8459L9.12563 21.8441L9.11943 21.84L9.0981 21.8258C9.07997 21.8137 9.05413 21.7963 9.02107 21.7737C8.95496 21.7286 8.85996 21.6629 8.74019 21.5778C8.50076 21.4075 8.16178 21.1589 7.7564 20.8409C6.9471 20.2063 5.8656 19.2894 4.78094 18.1618C2.64968 15.9462 0.337402 12.7435 0.337402 9.16674C0.337402 6.73557 1.31803 4.40397 3.06356 2.68487C4.80909 0.965778 7.17654 0 9.64509 0C12.1136 0 14.4811 0.965778 16.2266 2.68487C17.9722 4.40397 18.9528 6.73557 18.9528 9.16674C18.9528 12.7435 16.6405 15.9462 14.5092 18.1618C13.4246 19.2894 12.3431 20.2063 11.5338 20.8409C11.1284 21.1589 10.7894 21.4075 10.55 21.5778C10.4302 21.6629 10.3352 21.7286 10.2691 21.7737C10.2361 21.7963 10.2102 21.8137 10.1921 21.8258L10.1708 21.84L10.1646 21.8441L10.1626 21.8454C10.1626 21.8454 10.1614 21.8462 9.64509 21.0835ZM9.64509 21.0835L10.1614 21.8462C9.84875 22.0515 9.44094 22.0512 9.12829 21.8459L9.64509 21.0835Z" fill="black"/>
<path fill-rule="evenodd" clip-rule="evenodd" d="M9.64509 7.33339C8.61699 7.33339 7.78356 8.15421 7.78356 9.16674C7.78356 10.1793 8.61699 11.0001 9.64509 11.0001C10.6732 11.0001 11.5066 10.1793 11.5066 9.16674C11.5066 8.15421 10.6732 7.33339 9.64509 7.33339ZM5.92202 9.16674C5.92202 7.14168 7.5889 5.50004 9.64509 5.50004C11.7013 5.50004 13.3682 7.14168 13.3682 9.16674C13.3682 11.1918 11.7013 12.8334 9.64509 12.8334C7.5889 12.8334 5.92202 11.1918 5.92202 9.16674Z" fill="black"/>
</svg>
