<svg fill="none" height="19" viewBox="0 0 23 19" width="23" xmlns="http://www.w3.org/2000/svg"><g fill="#000" stroke="#000" stroke-width=".1"><path d="m18.1756 5.3364.0008.00057c.0648-.04556.1369-.07983.2133-.10126.0885-.02481.181-.03192.2723-.02092.0912.011.1794.03989.2594.08501.0801.04513.1504.10561.2071.17797.0566.07236.0984.15519.123.24374s.0314.18107.0202.27228c-.0112.0912-.0404.17929-.0857.25923-.0453.0799-.1059.15007-.1784.20651zm0 0-.0292.02287-5.5169 4.31701v-.00007l-.0023.00198-.0587.05194-.0001-.00007-.0021.00214c-.2159.21538-.5083.3363-.8132.3363s-.5973-.12092-.8131-.3363l.0002-.00025-.0047-.00371-5.57563-4.36895-.00012-.0001c-.14595-.11363-.33101-.16474-.51458-.14212-.18358.02262-.3507.11711-.4647.26276-.11401.14566-.1656.33058-.14346.51421.02213.18364.11619.351.26155.46539l.00011.00008 5.48645 4.29289c.47508.4571 1.10868.7124 1.76798.7124s1.293-.2553 1.768-.7124l5.4864-4.29279z"/><path d="m19.6962.95h-.0001-15.886-.00005c-.75824.000815-1.48519.30237-2.02137.8385s-.837798 1.26306-.83868 2.0213v.00005 11.38025.0001c.000881.7582.3025 1.4852.83868 2.0213s1.26313.8377 2.02137.8385h.00005 15.886.0001c.7582-.0008 1.4851-.3024 2.0212-.8386.5361-.5361.8376-1.263.8383-2.0212v-.0001-11.38025-.00005c-.0007-.75818-.3022-1.4851-.8383-2.02124s-1.263-.837721-2.0212-.83856zm1.4624 14.2401c-.0004.3878-.1546.7596-.4288 1.0338s-.6459.4285-1.0337.429h-15.88594c-.38785-.0005-.75969-.1547-1.03396-.4289-.27428-.2743-.42858-.6461-.42907-1.0339v-11.38018c.00049-.38785.15479-.75967.42907-1.03389.27427-.27423.64611-.42848 1.03396-.4289h15.88594c.3878.00049.7595.15477 1.0337.42899.2742.27423.4284.64601.4288 1.03379z"/></g></svg>