<svg width="117" height="84" viewBox="0 0 117 84" fill="none" xmlns="http://www.w3.org/2000/svg">
<path d="M43.8497 33.9697C41.7652 33.9697 39.6332 33.9697 37.3117 33.9697C35.8904 33.9697 35.0376 34.8699 34.9902 36.2912V40.7447V53.8681C34.9902 55.4789 35.843 56.3317 37.4538 56.3317C38.6383 56.3317 39.7753 56.3317 40.9597 56.3317C41.9073 56.3317 42.8075 56.3317 43.755 56.3317C45.2237 56.3317 46.1239 55.4315 46.1239 54.0102C46.1239 46.5247 46.1239 43.7768 46.1239 36.2912C46.1712 34.8699 45.2711 33.9697 43.8497 33.9697ZM44.3235 54.0102C44.3235 54.4366 44.2761 54.5314 43.8024 54.5314C41.7178 54.5314 39.5858 54.5314 37.5012 54.5314C36.9327 54.5314 36.8853 54.5314 36.8853 53.8681V41.3606V36.3386C36.8853 35.8648 36.9801 35.8174 37.3591 35.8174C38.4961 35.8174 39.5858 35.8174 40.6281 35.8174C41.7178 35.8174 42.8075 35.8174 43.8497 35.8174C44.2288 35.8174 44.3235 35.8648 44.3235 36.3386C44.3235 43.8242 44.3235 46.5247 44.3235 54.0102Z" fill="url(#paint0_linear)"/>
<path d="M61.7111 14.2607C59.6265 14.2607 57.4471 14.2607 55.173 14.2607C53.7517 14.2607 52.8989 15.1609 52.8516 16.5822C52.8516 18.7142 52.8516 27.4316 52.8989 35.1067L52.9463 53.868C52.9463 55.4788 53.7991 56.3316 55.4099 56.3316C56.5944 56.3316 57.7314 56.3316 58.9158 56.3316C59.8634 56.3316 60.7635 56.3316 61.7111 56.3316C63.1798 56.3316 64.0799 55.4314 64.0799 54.0101C64.0799 51.1201 64.0799 47.4247 64.0799 42.3554L64.0326 16.5348C64.0326 15.1609 63.1324 14.2607 61.7111 14.2607ZM62.2796 54.0101C62.2796 54.4365 62.2322 54.5313 61.7111 54.5313C59.6265 54.5313 57.4945 54.5313 55.4099 54.5313C54.8414 54.5313 54.794 54.5313 54.794 53.868L54.7466 35.1067C54.7466 27.4316 54.6993 18.7142 54.6993 16.5822C54.6993 16.1084 54.794 16.0611 55.173 16.0611C56.3101 16.0611 57.3998 16.0611 58.4894 16.0611C59.5791 16.0611 60.6214 16.0611 61.6637 16.0611C62.0427 16.0611 62.1375 16.1084 62.1375 16.5822L62.1848 42.4027C62.2796 47.4247 62.2796 51.1201 62.2796 54.0101Z" fill="url(#paint1_linear)"/>
<path d="M79.7145 31.0796C77.6299 31.0796 75.4979 31.0796 73.1765 31.0796C71.7551 31.0796 70.9024 31.9798 70.855 33.4011V41.2183V53.868C70.855 55.4788 71.7078 56.3316 73.3186 56.3316C74.503 56.3316 75.6401 56.3316 76.8245 56.3316C77.772 56.3316 78.6722 56.3316 79.6197 56.3316C81.0884 56.3316 81.9886 55.4314 81.9886 54.0101C81.9886 46.5245 81.9886 40.8866 81.9886 33.4011C82.036 31.9798 81.1358 31.0796 79.7145 31.0796ZM80.1883 54.0101C80.1883 54.4365 80.1409 54.5312 79.6671 54.5312C77.5825 54.5312 75.4506 54.5312 73.366 54.5312C72.7974 54.5312 72.7501 54.5313 72.7501 53.868V41.1235V33.4011C72.7501 32.9273 72.8448 32.8799 73.2238 32.8799C75.5453 32.8799 77.6773 32.8799 79.7145 32.8799C80.0935 32.8799 80.1883 32.9273 80.1883 33.4011C80.1883 40.8866 80.1883 46.5245 80.1883 54.0101Z" fill="url(#paint2_linear)"/>
<path d="M7.51172 71.4924C7.51172 72.7716 8.55402 73.7665 9.78582 73.7665L47.2611 73.6717C48.256 76.1353 50.6723 77.8409 53.4675 77.8409H63.6062C66.4014 77.8409 68.8651 76.1353 69.8126 73.6717L107.288 73.7665C108.567 73.7665 109.562 72.7242 109.562 71.4924C109.562 70.2132 108.567 69.2183 107.288 69.2183L66.0224 69.1235L65.6908 71.4924C65.5487 72.5347 64.6959 73.2927 63.6062 73.2927H53.4675C52.3778 73.2927 51.525 72.5347 51.3829 71.445L51.0513 69.1235L9.78582 69.2183C8.50664 69.2183 7.51172 70.2132 7.51172 71.4924Z" fill="url(#paint3_linear)"/>
<path d="M102.645 66.0437C103.924 66.0437 104.919 65.0014 104.919 63.7696V11.0862C104.919 4.97459 99.9445 0 93.8329 0H23.241C17.1294 0 12.1548 4.97459 12.1548 11.0862V63.7696C12.1548 65.0488 13.1971 66.0437 14.4289 66.0437C15.7081 66.0437 16.703 65.0014 16.703 63.7696V11.0862C16.703 7.48558 19.6404 4.5482 23.241 4.5482H93.8329C97.4336 4.5482 100.371 7.48558 100.371 11.0862V63.7696C100.324 65.0014 101.366 66.0437 102.645 66.0437Z" fill="url(#paint4_linear)"/>
<path d="M116.147 71.3977C116.147 70.8766 115.721 70.4976 115.247 70.4976C114.726 70.4976 114.347 70.924 114.347 71.3977V73.3402C114.347 78.22 110.367 82.1523 105.535 82.1523H11.5861C6.70626 82.1523 2.77396 78.1726 2.77396 73.3402V71.3977C2.77396 70.8766 2.34757 70.4976 1.8738 70.4976C1.40003 70.4976 0.973633 70.924 0.973633 71.3977V73.3402C0.973633 79.2149 5.75872 84 11.6335 84H105.535C111.41 84 116.195 79.2149 116.195 73.3402V71.3977H116.147Z" fill="url(#paint5_linear)"/>
<defs>
<linearGradient id="paint0_linear" x1="34.9936" y1="45.1644" x2="46.1239" y2="45.1644" gradientUnits="userSpaceOnUse">
<stop stop-color="#6011CA"/>
<stop offset="0.1959" stop-color="#571CCD"/>
<stop offset="0.535" stop-color="#4038D6"/>
<stop offset="0.9743" stop-color="#1A65E3"/>
<stop offset="1" stop-color="#1868E4"/>
</linearGradient>
<linearGradient id="paint1_linear" x1="52.8549" y1="35.322" x2="64.0782" y2="35.322" gradientUnits="userSpaceOnUse">
<stop stop-color="#6011CA"/>
<stop offset="0.1959" stop-color="#571CCD"/>
<stop offset="0.535" stop-color="#4038D6"/>
<stop offset="0.9743" stop-color="#1A65E3"/>
<stop offset="1" stop-color="#1868E4"/>
</linearGradient>
<linearGradient id="paint2_linear" x1="70.8583" y1="43.7211" x2="81.9887" y2="43.7211" gradientUnits="userSpaceOnUse">
<stop stop-color="#6011CA"/>
<stop offset="0.1959" stop-color="#571CCD"/>
<stop offset="0.535" stop-color="#4038D6"/>
<stop offset="0.9743" stop-color="#1A65E3"/>
<stop offset="1" stop-color="#1868E4"/>
</linearGradient>
<linearGradient id="paint3_linear" x1="7.54212" y1="73.4876" x2="109.546" y2="73.4876" gradientUnits="userSpaceOnUse">
<stop stop-color="#6011CA"/>
<stop offset="0.1959" stop-color="#571CCD"/>
<stop offset="0.535" stop-color="#4038D6"/>
<stop offset="0.9743" stop-color="#1A65E3"/>
<stop offset="1" stop-color="#1868E4"/>
</linearGradient>
<linearGradient id="paint4_linear" x1="12.1824" y1="33.0623" x2="104.905" y2="33.0623" gradientUnits="userSpaceOnUse">
<stop stop-color="#6011CA"/>
<stop offset="0.1959" stop-color="#571CCD"/>
<stop offset="0.535" stop-color="#4038D6"/>
<stop offset="0.9743" stop-color="#1A65E3"/>
<stop offset="1" stop-color="#1868E4"/>
</linearGradient>
<linearGradient id="paint5_linear" x1="1.00796" y1="77.2571" x2="116.177" y2="77.2571" gradientUnits="userSpaceOnUse">
<stop stop-color="#6011CA"/>
<stop offset="0.1959" stop-color="#571CCD"/>
<stop offset="0.535" stop-color="#4038D6"/>
<stop offset="0.9743" stop-color="#1A65E3"/>
<stop offset="1" stop-color="#1868E4"/>
</linearGradient>
</defs>
</svg>
