<svg width="106" height="86" viewBox="0 0 106 86" fill="none" xmlns="http://www.w3.org/2000/svg">
<path d="M4.55225 75.1133C4.55225 76.2844 5.50646 77.2386 6.67754 77.2386L40.5954 77.1519C41.5063 79.2772 43.6315 80.7518 46.0605 80.7518H54.8652C57.3375 80.7518 59.4628 79.2772 60.3736 77.1519L94.3349 77.2386C95.506 77.2386 96.4602 76.2844 96.4602 75.1133C96.4602 73.9422 95.506 72.988 94.3349 72.9447L56.8604 72.8579L56.5568 75.0699C56.47 75.894 55.7761 76.5013 54.9086 76.5013H46.1038C45.2797 76.5013 44.5424 75.894 44.4556 75.0266L44.152 72.8579L6.67754 72.9447C5.50646 72.9447 4.55225 73.8989 4.55225 75.1133Z" fill="url(#paint0_linear)"/>
<path d="M90.8651 68.39V40.1106C90.8651 38.9396 89.9109 37.9854 88.7398 37.9854C87.5687 37.9854 86.6145 38.9396 86.6145 40.1106V68.39C86.6145 69.5611 87.5687 70.5153 88.7398 70.5153C89.9109 70.5587 90.8651 69.6045 90.8651 68.39Z" fill="url(#paint1_linear)"/>
<path d="M19.9499 13.0024C14.5716 13.0024 10.1909 17.3831 10.1909 22.7614V68.3901C10.1909 69.5612 11.1451 70.5154 12.3162 70.5154C13.4873 70.5154 14.4415 69.5612 14.4415 68.3901V22.7614C14.4415 19.7253 16.9138 17.253 19.9065 17.253H79.3279C80.499 17.253 81.4532 16.2988 81.4532 15.1277C81.4532 13.9567 80.499 13.0024 79.3279 13.0024H19.9499Z" fill="url(#paint2_linear)"/>
<path d="M1.42948 74.1592C0.952371 74.1592 0.562012 74.5495 0.562012 75.0266V76.7182C0.562012 81.8363 4.72585 86.0001 9.84389 86.0001H91.2121C96.3302 86.0001 100.494 81.8363 100.494 76.7182V75.0266C100.494 74.5495 100.104 74.1592 99.6265 74.1592C99.1494 74.1592 98.7591 74.5495 98.7591 75.0266V76.7182C98.7591 80.882 95.376 84.3085 91.1687 84.3085H9.84389C5.68006 84.3085 2.25357 80.9254 2.25357 76.7182V75.0266C2.25357 74.5495 1.86321 74.1592 1.42948 74.1592Z" fill="url(#paint3_linear)"/>
<path d="M101.925 21.4167C102.142 21.4167 102.316 21.3734 102.533 21.2866C103.01 21.0697 103.4 20.636 103.443 20.0722L105.742 1.6819C105.786 1.16142 105.569 0.640946 105.135 0.29396C104.701 -0.00965236 104.137 -0.0963987 103.66 0.120468L86.5278 7.32043C86.0074 7.53729 85.7037 7.97103 85.617 8.53488C85.5302 9.09873 85.7905 9.57584 86.2242 9.92282L93.2507 15.2577L67.7038 52.2985L48.0991 42.7997L47.7088 43.0166C47.0582 43.3636 32.0944 51.431 30.2293 52.6888C29.839 52.9491 29.7089 53.4696 30.0125 53.8599C30.2727 54.2503 30.7932 54.3804 31.1836 54.0768C32.8317 52.9925 45.757 46.0094 48.1425 44.7082L68.2677 54.4672L94.5953 16.2553L100.971 21.0697C101.275 21.33 101.578 21.4167 101.925 21.4167ZM103.964 1.81202L101.752 19.5083L87.5254 8.75174L103.964 1.81202Z" fill="url(#paint4_linear)"/>
<defs>
<linearGradient id="paint0_linear" x1="4.57963" y1="76.8097" x2="96.4462" y2="76.8097" gradientUnits="userSpaceOnUse">
<stop stop-color="#6011CA"/>
<stop offset="0.1959" stop-color="#571CCD"/>
<stop offset="0.535" stop-color="#4038D6"/>
<stop offset="0.9743" stop-color="#1A65E3"/>
<stop offset="1" stop-color="#1868E4"/>
</linearGradient>
<linearGradient id="paint1_linear" x1="86.6158" y1="54.271" x2="90.8644" y2="54.271" gradientUnits="userSpaceOnUse">
<stop stop-color="#6011CA"/>
<stop offset="0.1959" stop-color="#571CCD"/>
<stop offset="0.535" stop-color="#4038D6"/>
<stop offset="0.9743" stop-color="#1A65E3"/>
<stop offset="1" stop-color="#1868E4"/>
</linearGradient>
<linearGradient id="paint2_linear" x1="10.2122" y1="41.7942" x2="81.4423" y2="41.7942" gradientUnits="userSpaceOnUse">
<stop stop-color="#6011CA"/>
<stop offset="0.1959" stop-color="#571CCD"/>
<stop offset="0.535" stop-color="#4038D6"/>
<stop offset="0.9743" stop-color="#1A65E3"/>
<stop offset="1" stop-color="#1868E4"/>
</linearGradient>
<linearGradient id="paint3_linear" x1="0.591786" y1="80.0869" x2="100.479" y2="80.0869" gradientUnits="userSpaceOnUse">
<stop stop-color="#6011CA"/>
<stop offset="0.1959" stop-color="#571CCD"/>
<stop offset="0.535" stop-color="#4038D6"/>
<stop offset="0.9743" stop-color="#1A65E3"/>
<stop offset="1" stop-color="#1868E4"/>
</linearGradient>
<linearGradient id="paint4_linear" x1="29.8673" y1="27.267" x2="105.736" y2="27.267" gradientUnits="userSpaceOnUse">
<stop stop-color="#6011CA"/>
<stop offset="0.1959" stop-color="#571CCD"/>
<stop offset="0.535" stop-color="#4038D6"/>
<stop offset="0.9743" stop-color="#1A65E3"/>
<stop offset="1" stop-color="#1868E4"/>
</linearGradient>
</defs>
</svg>
