<svg width="78" height="76" viewBox="0 0 78 76" fill="none" xmlns="http://www.w3.org/2000/svg">
<path d="M50.2465 6.57401C51.1676 6.57401 51.9298 5.81178 51.9298 4.89076C51.9298 3.96974 51.1676 3.20752 50.2465 3.20752H27.6339C26.7129 3.20752 25.9507 3.96974 25.9507 4.89076C25.9507 5.81178 26.7129 6.57401 27.6339 6.57401H50.2465Z" fill="url(#paint0_linear)"/>
<path d="M7.53027 20.4848C7.53027 20.8659 7.81611 21.1518 8.19722 21.1518H69.6832C70.0643 21.1518 70.3502 20.8659 70.3502 20.4848C70.3502 20.1037 70.0643 19.8179 69.6832 19.8179H8.19722C7.81611 19.8179 7.53027 20.1037 7.53027 20.4848Z" fill="url(#paint1_linear)"/>
<path d="M21.5996 0C20.6786 0 19.9164 0.762223 19.9164 1.68324V3.23945H8.26069C3.81439 3.23945 0.225586 6.86001 0.225586 11.2746V67.9649C0.225586 72.4112 3.84615 76 8.26069 76H69.6197C74.066 76 77.6547 72.3794 77.6547 67.9649V11.2746C77.6547 6.82825 74.0342 3.23945 69.6197 3.23945H57.9322V1.68324C57.9322 0.762223 57.17 0 56.249 0C55.328 0 54.5657 0.762223 54.5657 1.68324V8.13038C54.5657 9.0514 55.328 9.81362 56.249 9.81362C57.17 9.81362 57.9322 9.0514 57.9322 8.13038V6.57417H69.6197C72.1922 6.57417 74.32 8.67029 74.32 11.2746V67.9649C74.32 70.5374 72.2239 72.6653 69.6197 72.6653H8.26069C5.68818 72.6653 3.56031 70.5692 3.56031 67.9649V11.2746C3.56031 8.70205 5.65643 6.57417 8.26069 6.57417H19.9481V8.13038C19.9481 9.0514 20.7103 9.81362 21.6314 9.81362C22.5524 9.81362 23.3146 9.0514 23.3146 8.13038V4.89093V1.65148C23.2828 0.730464 22.5206 0 21.5996 0Z" fill="url(#paint2_linear)"/>
<path d="M51.0404 37.222L34.7479 53.2605L26.8398 45.2253C26.2046 44.5584 25.1248 44.5584 24.4896 45.1936C23.8227 45.8288 23.8227 46.9086 24.4578 47.5438L33.541 56.7857C33.8586 57.1033 34.3032 57.2939 34.7161 57.2939C35.129 57.2939 35.5736 57.1351 35.8912 56.8175L53.3588 39.604C54.0257 38.9688 54.0258 37.8889 53.3906 37.2538C52.7554 36.5868 51.7073 36.5868 51.0404 37.222Z" fill="url(#paint3_linear)"/>
<defs>
<linearGradient id="paint0_linear" x1="25.9584" y1="4.89283" x2="51.9258" y2="4.89283" gradientUnits="userSpaceOnUse">
<stop stop-color="#6011CA"/>
<stop offset="0.1959" stop-color="#571CCD"/>
<stop offset="0.535" stop-color="#4038D6"/>
<stop offset="0.9743" stop-color="#1A65E3"/>
<stop offset="1" stop-color="#1868E4"/>
</linearGradient>
<linearGradient id="paint1_linear" x1="7.54899" y1="20.4856" x2="70.3406" y2="20.4856" gradientUnits="userSpaceOnUse">
<stop stop-color="#6011CA"/>
<stop offset="0.1959" stop-color="#571CCD"/>
<stop offset="0.535" stop-color="#4038D6"/>
<stop offset="0.9743" stop-color="#1A65E3"/>
<stop offset="1" stop-color="#1868E4"/>
</linearGradient>
<linearGradient id="paint2_linear" x1="0.248656" y1="38.0466" x2="77.643" y2="38.0466" gradientUnits="userSpaceOnUse">
<stop stop-color="#6011CA"/>
<stop offset="0.1959" stop-color="#571CCD"/>
<stop offset="0.535" stop-color="#4038D6"/>
<stop offset="0.9743" stop-color="#1A65E3"/>
<stop offset="1" stop-color="#1868E4"/>
</linearGradient>
<linearGradient id="paint3_linear" x1="23.9943" y1="47.0343" x2="53.8585" y2="47.0343" gradientUnits="userSpaceOnUse">
<stop stop-color="#6011CA"/>
<stop offset="0.1959" stop-color="#571CCD"/>
<stop offset="0.535" stop-color="#4038D6"/>
<stop offset="0.9743" stop-color="#1A65E3"/>
<stop offset="1" stop-color="#1868E4"/>
</linearGradient>
</defs>
</svg>
