<svg width="56" height="55" viewBox="0 0 56 55" fill="none" xmlns="http://www.w3.org/2000/svg">
<path d="M41.0803 54.9137L37.9157 54.9045C36.6633 54.9045 35.2922 54.0882 35.0612 52.2653L35.0171 51.8954C34.9858 51.6764 34.9646 51.4592 34.9462 51.265C34.9435 51.2328 34.9398 51.1988 34.937 51.1638C34.9204 51.1647 34.903 51.1666 34.8846 51.1684C34.7889 51.1767 23.7242 51.5043 20.4924 51.4619C20.4483 51.8033 20.3967 52.1429 20.3351 52.4871C20.2145 53.168 19.9486 53.7027 19.5216 54.1168L19.2069 54.3901C18.7238 54.7324 18.1358 54.9054 17.4603 54.9054H11.524C10.6618 54.9054 9.84374 54.5336 9.27781 53.8858C8.71188 53.2518 8.44502 52.3914 8.55452 51.5365C8.62722 50.9595 8.70544 50.3733 8.78458 49.7927L9.12414 47.3081C9.13334 47.1986 9.15726 47.0422 9.18211 46.8913L9.20327 46.7569C9.2456 46.5002 9.28149 46.2821 9.29898 46.0962C7.3334 44.2061 5.88499 42.0776 4.91324 39.6372C4.42369 39.5783 3.9369 39.513 3.45747 39.4486L2.49125 39.3289C1.03639 39.1293 0.0269162 37.9919 0.013113 36.56C-0.00437101 34.4518 -0.00437101 32.4927 0.013113 30.551C0.0278364 29.3695 0.832102 28.0057 2.56486 27.7978L2.67161 27.7867C3.38937 27.6929 4.15591 27.5972 4.91784 27.5217C5.79297 25.2773 7.12083 23.2538 8.87752 21.4879C8.6079 20.5805 8.21681 19.2518 7.9205 18.2248C7.62327 17.1905 7.8248 16.1074 8.47355 15.2507C9.33854 14.1142 10.8817 13.6256 12.2225 14.0618C14.1835 14.6958 15.8951 15.4292 17.4419 16.2988C19.7756 15.5967 22.8942 15.2111 26.2438 15.2111C31.5847 15.2111 36.6274 16.1819 39.7359 17.8079C43.3413 19.6769 46.0191 22.2434 47.727 25.4613C47.9635 25.2166 48.2442 25.0178 48.5644 24.8733C49.5187 24.4418 50.7435 24.5319 51.8395 25.1135C54.3535 26.4478 54.2624 28.8726 54.1897 30.8216C54.1382 32.189 54.0931 33.3706 54.798 34.0801C55.2332 34.519 55.2305 35.2276 54.7906 35.6628C54.3535 36.0972 53.6422 36.0962 53.2078 35.6555C51.8201 34.2567 51.8901 32.3869 51.9517 30.7369C52.0235 28.8394 52.0042 27.7352 50.7904 27.091C50.3239 26.8435 49.7994 26.7736 49.4865 26.9144C49.3779 26.9631 49.2445 27.0579 49.1727 27.3579C48.9841 28.1484 49.134 28.8542 49.3255 29.7477C49.4055 30.1259 49.4874 30.5115 49.5472 30.9154C50.2383 35.5515 48.8847 40.5307 45.9262 44.2742C46.1047 45.6103 46.2832 46.9676 46.4535 48.2937L46.8841 51.4877C47.0065 52.338 46.747 53.2113 46.1682 53.8711C45.5931 54.529 44.7649 54.9063 43.8971 54.9063L41.0803 54.9137ZM35.0833 48.9194C36.9725 48.9194 37.1041 50.2924 37.1768 51.0525C37.1915 51.2172 37.209 51.4012 37.2385 51.6073L37.2845 51.9929C37.3434 52.4558 37.5394 52.6656 37.9194 52.6656L41.0803 52.6748L43.8944 52.6656C44.1226 52.6656 44.3305 52.569 44.4842 52.3941C44.6287 52.2285 44.6968 52.0049 44.6664 51.7951L44.2339 48.5844C44.0526 47.1784 43.864 45.7428 43.6744 44.3257C43.6137 43.8223 43.7388 43.4184 44.0766 43.0006C46.724 39.7219 47.9405 35.3269 47.3332 31.244C47.2798 30.8878 47.2071 30.5474 47.1353 30.2152C47.0912 30.01 47.047 29.802 47.0065 29.5922C46.9669 29.5195 46.9357 29.4403 46.9127 29.3566L46.8961 29.2996C45.6345 25.1549 42.8775 21.9553 38.7025 19.7919C35.8959 18.3242 31.2405 17.4491 26.2447 17.4491C23.0543 17.4491 20.1188 17.8135 17.9812 18.4751C17.7364 18.5552 17.1852 18.7392 16.6018 18.3969C15.123 17.5374 13.4639 16.815 11.5333 16.1911C11.086 16.0457 10.5495 16.2197 10.2569 16.6043C10.0397 16.8905 9.97257 17.2558 10.072 17.6037C10.406 18.7604 10.8606 20.3036 11.1256 21.186C11.3115 21.879 11.1734 22.3796 10.6894 22.8424C8.94101 24.5356 7.65272 26.5076 6.86593 28.6996C6.63864 29.3152 6.21995 29.6327 5.54175 29.71C4.6519 29.7891 3.7731 29.8986 2.92743 30.0081L2.81056 30.0201C2.33205 30.079 2.25383 30.3909 2.25107 30.5713C2.23359 32.4973 2.23359 34.4445 2.25107 36.5379C2.25383 36.8527 2.44431 37.0606 2.77283 37.1066L3.75562 37.2281C4.39332 37.3137 5.04667 37.402 5.70003 37.472C6.27516 37.5419 6.64784 37.8391 6.82268 38.359C7.69597 40.7636 9.10113 42.8552 11.109 44.7251C11.4596 45.0794 11.5747 45.5846 11.5489 45.9444C11.5517 46.2738 11.4872 46.6686 11.4247 47.0495L11.3934 47.2455C11.3768 47.3486 11.3584 47.4553 11.3483 47.5658L11.0041 50.0899C10.9268 50.665 10.8486 51.2448 10.7768 51.8181C10.7492 52.0352 10.8127 52.2423 10.9572 52.4042C11.1035 52.5717 11.3124 52.6656 11.524 52.6656H17.4603C17.6959 52.6656 17.8155 52.6196 17.8763 52.5864L17.9941 52.4806C17.9931 52.4806 18.0769 52.3969 18.1303 52.0951C18.2039 51.6837 18.2609 51.2853 18.3097 50.862L18.3723 50.3881C18.421 50.0936 18.456 49.9795 18.4698 49.9372L18.7229 49.166H19.5345C19.6495 49.166 19.8345 49.1761 20.0627 49.2203C20.913 49.2967 33.6864 49.0261 34.6876 48.9387C34.8266 48.9258 34.9591 48.9194 35.0833 48.9194Z" fill="url(#paint0_linear)"/>
<path d="M15.5223 31.3857C14.4465 31.3857 13.5815 30.5151 13.5815 29.4449C13.5815 28.3747 14.4465 27.5042 15.5223 27.5042C16.5925 27.5042 17.463 28.3747 17.463 29.4449C17.463 30.5151 16.5925 31.3857 15.5223 31.3857Z" fill="url(#paint1_linear)"/>
<path d="M27.4109 23.5785C29.4491 23.5785 31.5012 23.803 33.5091 24.2457C34.3879 24.4398 34.9769 24.1472 35.1821 23.3834C35.2686 23.0715 35.229 22.7945 35.0698 22.5782C34.8931 22.339 34.5683 22.1743 34.1312 22.1034C31.6751 21.7013 29.5651 21.5099 27.4891 21.4998H27.3198C25.299 21.4998 23.2184 21.6682 20.9602 22.0151C20.5654 22.0758 20.2599 22.2378 20.0768 22.4844C19.9019 22.7209 19.8513 23.0209 19.9378 23.3301C20.1394 24.0515 20.708 24.3377 21.5574 24.1739C23.5138 23.7791 25.4858 23.5785 27.4109 23.5785Z" fill="url(#paint2_linear)"/>
<path d="M30.1979 13.0955C26.5897 13.0955 23.6542 10.1591 23.6533 6.54823C23.6533 4.80903 24.337 3.16737 25.5793 1.92508C26.8207 0.683718 28.4623 0 30.2025 0C33.8069 0.0073617 36.7369 2.92904 36.7489 6.51326C36.7544 8.25706 36.0753 9.90517 34.8385 11.1521C33.6008 12.3999 31.9601 13.0891 30.2181 13.0946H30.1979V13.0955ZM30.2144 0.896287C28.7025 0.896287 27.2845 1.48706 26.2124 2.55911C25.1395 3.63116 24.5487 5.04829 24.5496 6.54823C24.5496 9.66407 27.0839 12.1993 30.1988 12.1993V12.6474L30.2154 12.1993C31.7181 12.1947 33.1343 11.5984 34.2026 10.5217C35.2719 9.44414 35.8572 8.02149 35.8535 6.51602C35.8434 3.42411 33.3137 0.902728 30.2144 0.896287Z" fill="url(#paint3_linear)"/>
<defs>
<linearGradient id="paint0_linear" x1="0.0164236" y1="34.4338" x2="55.1141" y2="34.4338" gradientUnits="userSpaceOnUse">
<stop stop-color="#6011CA"/>
<stop offset="0.1959" stop-color="#571CCD"/>
<stop offset="0.535" stop-color="#4038D6"/>
<stop offset="0.9743" stop-color="#1A65E3"/>
<stop offset="1" stop-color="#1868E4"/>
</linearGradient>
<linearGradient id="paint1_linear" x1="13.5827" y1="29.4473" x2="17.4624" y2="29.4473" gradientUnits="userSpaceOnUse">
<stop stop-color="#6011CA"/>
<stop offset="0.1959" stop-color="#571CCD"/>
<stop offset="0.535" stop-color="#4038D6"/>
<stop offset="0.9743" stop-color="#1A65E3"/>
<stop offset="1" stop-color="#1868E4"/>
</linearGradient>
<linearGradient id="paint2_linear" x1="19.9011" y1="22.9035" x2="35.2245" y2="22.9035" gradientUnits="userSpaceOnUse">
<stop stop-color="#6011CA"/>
<stop offset="0.1959" stop-color="#571CCD"/>
<stop offset="0.535" stop-color="#4038D6"/>
<stop offset="0.9743" stop-color="#1A65E3"/>
<stop offset="1" stop-color="#1868E4"/>
</linearGradient>
<linearGradient id="paint3_linear" x1="23.6572" y1="6.5558" x2="36.7469" y2="6.5558" gradientUnits="userSpaceOnUse">
<stop stop-color="#6011CA"/>
<stop offset="0.1959" stop-color="#571CCD"/>
<stop offset="0.535" stop-color="#4038D6"/>
<stop offset="0.9743" stop-color="#1A65E3"/>
<stop offset="1" stop-color="#1868E4"/>
</linearGradient>
</defs>
</svg>
