<svg width="85" height="100" viewBox="0 0 85 100" fill="none" xmlns="http://www.w3.org/2000/svg">
<path d="M33.8542 58.9064C34.9614 58.6934 35.6853 57.6288 35.4724 56.4791C35.2594 55.3719 34.1948 54.648 33.0451 54.8609C28.2331 55.7977 24.7412 60.0135 24.7412 64.9107C24.7412 70.5744 29.3403 75.1734 35.0039 75.1734C40.6676 75.1734 45.2241 70.5744 45.2241 64.9107C45.2241 64.1868 45.1389 63.4628 45.0112 62.8241C44.7557 61.7169 43.6911 60.993 42.5839 61.2485C41.4767 61.504 40.7528 62.5686 41.0083 63.6758C41.0934 64.059 41.136 64.4849 41.136 64.9107C41.136 68.3174 38.3681 71.0428 35.0039 71.0428C31.5972 71.0428 28.8719 68.2748 28.8719 64.9107C28.8719 61.9724 30.9585 59.4599 33.8542 58.9064Z" fill="url(#paint0_linear)"/>
<path d="M59.958 65.7198C60.4264 65.7198 60.7671 65.3365 60.7671 64.9107C60.7671 64.4848 60.3839 64.1016 59.958 64.1016H54.635C54.1666 64.1016 53.8259 64.4848 53.8259 64.9107C53.8259 65.3365 54.2092 65.7198 54.635 65.7198H59.958Z" fill="url(#paint1_linear)"/>
<path d="M10.0925 64.1016C9.62412 64.1016 9.28345 64.4848 9.28345 64.9107C9.28345 65.3365 9.6667 65.7198 10.0925 65.7198H15.4155C15.884 65.7198 16.2246 65.3365 16.2246 64.9107C16.2246 64.4848 15.8414 64.1016 15.4155 64.1016H10.0925Z" fill="url(#paint2_linear)"/>
<path d="M34.1948 84.4995V89.8225C34.1948 90.2909 34.5781 90.6316 35.0039 90.6316C35.4723 90.6316 35.813 90.2484 35.813 89.8225V84.4995C35.813 84.0311 35.4298 83.6904 35.0039 83.6904C34.5781 83.6904 34.1948 84.0737 34.1948 84.4995Z" fill="url(#paint3_linear)"/>
<path d="M35.8555 45.322V39.999C35.8555 39.5306 35.4722 39.1899 35.0464 39.1899C34.578 39.1899 34.2373 39.5732 34.2373 39.999V45.322C34.2373 45.7905 34.6206 46.1311 35.0464 46.1311C35.4722 46.1311 35.8555 45.7479 35.8555 45.322Z" fill="url(#paint4_linear)"/>
<path d="M44.117 33.1431C44.3725 32.0359 43.6485 30.9288 42.5414 30.7158C40.0715 30.1622 37.559 29.9067 35.0466 29.9067C15.7135 29.9067 0 45.6202 0 64.9533C0 84.2864 15.7135 99.9999 35.0466 99.9999C54.3797 99.9999 70.0932 84.2864 70.0932 64.9533C70.0932 57.3734 67.7085 50.1767 63.2371 44.1298C62.5558 43.2355 61.2783 43.0226 60.384 43.7039C59.4898 44.3853 59.2768 45.6628 59.9582 46.5571C63.9185 51.88 66.0051 58.2676 66.0051 64.9533C66.0051 82.0295 52.1227 95.8693 35.0892 95.8693C18.013 95.8693 4.13064 81.9869 4.13064 64.9533C4.13064 47.9197 18.013 34.0374 35.0892 34.0374C37.3035 34.0374 39.5605 34.2929 41.7323 34.7613C42.7543 34.9316 43.8615 34.2503 44.117 33.1431Z" fill="url(#paint5_linear)"/>
<path d="M74.2666 33.3987L84.359 17.9407C84.7848 17.302 84.7848 16.4503 84.4016 15.769C83.9757 15.0876 83.2518 14.7044 82.4427 14.7895L66.8996 16.1948L61.9173 1.37559C61.6618 0.651665 61.023 0.0980738 60.2139 0.0129059C59.4474 -0.072262 58.6809 0.26841 58.255 0.907169L48.1626 16.3651C46.6296 18.7498 46.076 21.5604 46.6722 24.3709C47.2684 27.1389 48.8866 29.5236 51.2713 31.0992L53.6986 32.6748L33.3434 63.8888C32.7047 64.8257 33.0028 66.1032 33.9396 66.7419C34.2803 66.9549 34.6635 67.0826 35.0468 67.0826C35.7281 67.0826 36.3669 66.7419 36.7501 66.1458L57.1053 34.9317L59.5326 36.5073C61.2785 37.6571 63.2799 38.2533 65.324 38.2533C66.0479 38.2533 66.8144 38.1681 67.5383 38.0404C70.3063 37.4442 72.691 35.7834 74.2666 33.3987ZM66.6867 33.9949C64.9833 34.3356 63.2374 34.0375 61.7895 33.058L53.4856 27.6499C50.4622 25.691 49.6105 21.6455 51.5694 18.6221L59.3622 6.69858L63.4929 19.0053C63.7909 19.8996 64.6852 20.4958 65.6221 20.4106L78.5676 19.2608L70.7747 31.1844C69.8805 32.6322 68.39 33.6116 66.6867 33.9949Z" fill="url(#paint6_linear)"/>
<defs>
<linearGradient id="paint0_linear" x1="24.7473" y1="65.0111" x2="45.221" y2="65.0111" gradientUnits="userSpaceOnUse">
<stop stop-color="#6011CA"/>
<stop offset="0.1959" stop-color="#571CCD"/>
<stop offset="0.535" stop-color="#4038D6"/>
<stop offset="0.9743" stop-color="#1A65E3"/>
<stop offset="1" stop-color="#1868E4"/>
</linearGradient>
<linearGradient id="paint1_linear" x1="53.828" y1="64.9117" x2="60.7661" y2="64.9117" gradientUnits="userSpaceOnUse">
<stop stop-color="#6011CA"/>
<stop offset="0.1959" stop-color="#571CCD"/>
<stop offset="0.535" stop-color="#4038D6"/>
<stop offset="0.9743" stop-color="#1A65E3"/>
<stop offset="1" stop-color="#1868E4"/>
</linearGradient>
<linearGradient id="paint2_linear" x1="9.28552" y1="64.9117" x2="16.2236" y2="64.9117" gradientUnits="userSpaceOnUse">
<stop stop-color="#6011CA"/>
<stop offset="0.1959" stop-color="#571CCD"/>
<stop offset="0.535" stop-color="#4038D6"/>
<stop offset="0.9743" stop-color="#1A65E3"/>
<stop offset="1" stop-color="#1868E4"/>
</linearGradient>
<linearGradient id="paint3_linear" x1="34.1953" y1="87.1653" x2="35.8128" y2="87.1653" gradientUnits="userSpaceOnUse">
<stop stop-color="#6011CA"/>
<stop offset="0.1959" stop-color="#571CCD"/>
<stop offset="0.535" stop-color="#4038D6"/>
<stop offset="0.9743" stop-color="#1A65E3"/>
<stop offset="1" stop-color="#1868E4"/>
</linearGradient>
<linearGradient id="paint4_linear" x1="34.2378" y1="42.6648" x2="35.8552" y2="42.6648" gradientUnits="userSpaceOnUse">
<stop stop-color="#6011CA"/>
<stop offset="0.1959" stop-color="#571CCD"/>
<stop offset="0.535" stop-color="#4038D6"/>
<stop offset="0.9743" stop-color="#1A65E3"/>
<stop offset="1" stop-color="#1868E4"/>
</linearGradient>
<linearGradient id="paint5_linear" x1="0.0208841" y1="64.9963" x2="70.0825" y2="64.9963" gradientUnits="userSpaceOnUse">
<stop stop-color="#6011CA"/>
<stop offset="0.1959" stop-color="#571CCD"/>
<stop offset="0.535" stop-color="#4038D6"/>
<stop offset="0.9743" stop-color="#1A65E3"/>
<stop offset="1" stop-color="#1868E4"/>
</linearGradient>
<linearGradient id="paint6_linear" x1="33.0193" y1="33.5824" x2="84.676" y2="33.5824" gradientUnits="userSpaceOnUse">
<stop stop-color="#6011CA"/>
<stop offset="0.1959" stop-color="#571CCD"/>
<stop offset="0.535" stop-color="#4038D6"/>
<stop offset="0.9743" stop-color="#1A65E3"/>
<stop offset="1" stop-color="#1868E4"/>
</linearGradient>
</defs>
</svg>
