<svg width="105" height="90" viewBox="0 0 105 90" fill="none" xmlns="http://www.w3.org/2000/svg">
<path d="M51.8742 73.6423C49.8038 73.5662 48.2004 71.8503 48.2264 69.7419C48.2523 67.6593 49.9301 65.9418 51.9746 65.9297C54.083 65.9297 55.7487 67.7095 55.6985 69.9304C55.6501 72.0008 53.8685 73.7184 51.8742 73.6423Z" fill="url(#paint0_linear)"/>
<path d="M94.5936 0H94.3498H92.4471H9.9646C4.46945 0 0 4.47118 0 9.9646V70.2088C0 75.704 4.47118 80.1734 9.9646 80.1734H94.5936C100.089 80.1734 104.558 75.7022 104.558 70.2088V9.9646C104.558 4.46945 100.089 0 94.5936 0ZM100.495 70.2088C100.495 73.4606 97.8454 76.1104 94.5936 76.1104H9.9646C6.71283 76.1104 4.06298 73.4606 4.06298 70.2088V62.325H100.494V70.2088H100.495ZM100.495 58.2603H4.06298V9.9646C4.06298 6.71283 6.71283 4.06298 9.9646 4.06298H92.4471H94.3498H94.5936C97.8454 4.06298 100.495 6.71283 100.495 9.9646V58.2603Z" fill="url(#paint1_linear)"/>
<path d="M69.7575 85.9355H34.8027V90.0003H69.7575V85.9355Z" fill="url(#paint2_linear)"/>
<path d="M92.52 22.46C89.9773 20.2426 86.326 19.8845 83.4098 21.5658C82.6626 22.0016 81.988 22.5499 81.4051 23.2124C79.9038 24.9282 79.2846 27.1024 79.506 29.2057L69.1522 34.3878C67.023 31.0495 62.6694 29.7505 59.0492 31.5702C57.6949 32.2413 56.6087 33.2773 55.8649 34.5019L47.9119 27.5712C50.1829 24.328 49.7315 19.7929 46.6683 17.1378C44.1447 14.9256 40.4916 14.5658 37.5754 16.247C36.8109 16.6795 36.1502 17.2485 35.5707 17.8937C33.7615 19.9658 33.2305 22.716 33.912 25.1877L24.705 31.1152C22.2177 28.007 17.7621 27.1872 14.3668 29.4012C11.518 31.2121 10.1568 34.6109 10.9559 37.8765C11.1773 38.731 11.5232 39.5353 11.9816 40.2686C14.3495 43.9286 19.215 44.9889 22.8715 42.64C25.7013 40.8239 27.0487 37.4043 26.2669 34.1422C26.1198 33.5731 25.895 33.0058 25.6217 32.4851L34.5381 26.7461C34.955 27.585 35.5604 28.3495 36.3214 29.012C38.845 31.2242 42.5205 31.5702 45.4143 29.9028C45.9383 29.6122 46.4036 29.2299 46.8378 28.8234L55.1471 36.0621C54.7337 37.1846 54.6057 38.4058 54.7631 39.6511C54.8651 40.5194 55.1263 41.3635 55.5172 42.1384C57.4735 46.0163 62.2076 47.6076 66.0855 45.6514C69.0951 44.1621 70.8127 40.8982 70.3681 37.5928C70.2834 36.9978 70.1191 36.4253 69.9132 35.8614L79.8588 30.88C80.2912 32.1842 81.0523 33.3846 82.1558 34.3324C84.6794 36.5447 88.3549 36.8906 91.2486 35.2232C91.7727 34.9309 92.238 34.5504 92.6895 34.1474L92.7517 34.2183C92.9939 33.7132 93.4246 33.324 93.9071 33.0438L93.7463 32.8933C96.0191 29.6295 95.5832 25.115 92.52 22.46ZM20.6351 39.1617C19.791 39.6927 18.7861 39.9002 17.8157 39.6719C16.8229 39.4592 15.9875 38.8763 15.453 38.0512C15.2212 37.6949 15.0759 37.2971 14.967 36.9096C14.5899 35.3495 15.2247 33.7357 16.5842 32.8553C17.4093 32.3208 18.4298 32.1358 19.4226 32.3485C20.3774 32.5526 21.2145 33.1355 21.7628 33.983C22.8577 35.6971 22.3267 38.0823 20.6351 39.1617ZM44.3298 25.5353C42.9823 27.073 40.547 27.2235 39.0249 25.8986C38.5873 25.5163 38.2327 25.0182 38.0372 24.4958C37.8833 24.1361 37.7934 23.7521 37.7657 23.3421C37.7536 23.1277 37.764 22.8993 37.7899 22.6935C37.8591 21.9203 38.1497 21.1939 38.6582 20.611C38.9384 20.2875 39.2636 20.0298 39.6354 19.8205C41.0175 19.0214 42.7471 19.1996 43.9648 20.2478C44.712 20.8877 45.1669 21.8114 45.2378 22.8267C45.3157 23.8057 44.9939 24.7743 44.3298 25.5353ZM64.2399 41.9654C63.3388 42.4065 62.32 42.4964 61.3912 42.1626C60.4226 41.8392 59.6615 41.1767 59.198 40.2894C59.0509 39.9884 58.9437 39.6771 58.916 39.364L58.9022 39.3415C58.8814 39.2602 58.8555 39.198 58.8538 39.1201C58.7586 38.4854 58.8382 37.8488 59.0509 37.2988C59.3727 36.4253 60.0092 35.6971 60.8705 35.2664C61.7769 34.8064 62.7905 34.7354 63.7591 35.0589C64.6914 35.3737 65.4524 36.0361 65.9125 36.9425C66.8275 38.7725 66.0301 41.0608 64.2399 41.9654ZM90.1641 30.8541C88.8167 32.3917 86.3848 32.5249 84.8593 31.2173C84.2141 30.6379 83.7678 29.8491 83.6468 28.9774C83.6156 28.8546 83.6174 28.7594 83.6035 28.6418C83.581 28.3876 83.6035 28.1039 83.6399 27.8427C83.735 27.1318 84.0308 26.4659 84.5133 25.9159C84.7901 25.6097 85.1153 25.352 85.4681 25.1393C86.8501 24.3402 88.585 24.4993 89.7975 25.5665C90.562 26.2116 91.0186 27.1353 91.0705 28.1454C91.1501 29.1244 90.8266 30.093 90.1641 30.8541Z" fill="url(#paint3_linear)"/>
<defs>
<linearGradient id="paint0_linear" x1="48.2283" y1="69.7919" x2="55.6985" y2="69.7919" gradientUnits="userSpaceOnUse">
<stop stop-color="#6011CA"/>
<stop offset="0.1959" stop-color="#571CCD"/>
<stop offset="0.535" stop-color="#4038D6"/>
<stop offset="0.9743" stop-color="#1A65E3"/>
<stop offset="1" stop-color="#1868E4"/>
</linearGradient>
<linearGradient id="paint1_linear" x1="0.0311529" y1="40.1359" x2="104.542" y2="40.1359" gradientUnits="userSpaceOnUse">
<stop stop-color="#6011CA"/>
<stop offset="0.1959" stop-color="#571CCD"/>
<stop offset="0.535" stop-color="#4038D6"/>
<stop offset="0.9743" stop-color="#1A65E3"/>
<stop offset="1" stop-color="#1868E4"/>
</linearGradient>
<linearGradient id="paint2_linear" x1="34.8131" y1="87.9704" x2="69.7522" y2="87.9704" gradientUnits="userSpaceOnUse">
<stop stop-color="#6011CA"/>
<stop offset="0.1959" stop-color="#571CCD"/>
<stop offset="0.535" stop-color="#4038D6"/>
<stop offset="0.9743" stop-color="#1A65E3"/>
<stop offset="1" stop-color="#1868E4"/>
</linearGradient>
<linearGradient id="paint3_linear" x1="10.7549" y1="30.8611" x2="95.1698" y2="30.8611" gradientUnits="userSpaceOnUse">
<stop stop-color="#6011CA"/>
<stop offset="0.1959" stop-color="#571CCD"/>
<stop offset="0.535" stop-color="#4038D6"/>
<stop offset="0.9743" stop-color="#1A65E3"/>
<stop offset="1" stop-color="#1868E4"/>
</linearGradient>
</defs>
</svg>
