<svg width="0" height="0" class="hidden">
  <symbol viewBox="0 0 30 30" fill="none" xmlns="http://www.w3.org/2000/svg" id="vk">
    <path d="M14.92.18C6.91.18.42 6.673.42 14.68c0 8.009 6.491 14.5 14.5 14.5 8.008 0 14.5-6.491 14.5-14.5 0-8.008-6.492-14.5-14.5-14.5zm5.576 16.36s1.282 1.266 1.598 1.853a.111.111 0 0 1 .016.03c.129.217.16.384.096.51-.106.208-.468.31-.592.32h-2.266c-.157 0-.486-.041-.885-.316-.307-.215-.609-.566-.903-.91-.44-.51-.82-.95-1.204-.95a.46.46 0 0 0-.144.022c-.29.093-.661.507-.661 1.61 0 .344-.272.542-.464.542H14.05c-.353 0-2.194-.124-3.825-1.844-1.997-2.107-3.795-6.333-3.81-6.373-.113-.273.121-.42.376-.42H9.08c.305 0 .404.186.474.351.081.192.38.955.871 1.813.796 1.398 1.284 1.966 1.676 1.966.073 0 .145-.02.21-.054.51-.284.415-2.104.392-2.482 0-.07-.001-.814-.263-1.17-.187-.259-.506-.357-.699-.393a.832.832 0 0 1 .3-.255c.351-.176.982-.201 1.61-.201h.348c.68.009.855.053 1.101.114.499.12.51.441.465 1.543a24.01 24.01 0 0 0-.027 1.083c0 .09-.004.187-.004.29-.015.56-.034 1.196.362 1.457a.32.32 0 0 0 .172.05c.138 0 .552 0 1.672-1.923.346-.619.646-1.262.9-1.924.022-.04.088-.16.167-.207a.402.402 0 0 1 .187-.044h2.69c.293 0 .494.044.532.157.066.18-.012.728-1.24 2.391l-.549.724c-1.113 1.459-1.113 1.533.07 2.64z"
      fill="url(#paint0_linear)"></path>
    <defs>
      <linearGradient id="paint0_linear" x1=".428" y1="14.698" x2="29.415" y2="14.698" gradientUnits="userSpaceOnUse">
        <stop stop-color="#6011CA"></stop>
        <stop offset=".196" stop-color="#571CCD"></stop>
        <stop offset=".535" stop-color="#4038D6"></stop>
        <stop offset=".974" stop-color="#1A65E3"></stop>
        <stop offset="1" stop-color="#1868E4"></stop>
      </linearGradient>
    </defs>
  </symbol>
  <symbol viewBox="0 0 30 30" fill="none" xmlns="http://www.w3.org/2000/svg" id="fb">
    <path d="M29.34 14.77C29.34 6.71 22.804.18 14.75.18 6.69.18.16 6.71.16 14.77c0 7.28 5.333 13.317 12.31 14.41V18.99H8.765v-4.22h3.705v-3.216c0-3.655 2.175-5.674 5.509-5.674 1.596 0 3.268.284 3.268.284v3.59h-1.843c-1.81 0-2.375 1.126-2.375 2.28v2.736h4.046l-.65 4.217H17.03V29.18c6.972-1.094 12.31-7.13 12.31-14.41z"
      fill="url(#paint0_linear)"></path>
    <defs>
      <linearGradient id="paint0_linear" x1=".169" y1="14.698" x2="29.335" y2="14.698" gradientUnits="userSpaceOnUse">
        <stop stop-color="#6011CA"></stop>
        <stop offset=".196" stop-color="#571CCD"></stop>
        <stop offset=".535" stop-color="#4038D6"></stop>
        <stop offset=".974" stop-color="#1A65E3"></stop>
        <stop offset="1" stop-color="#1868E4"></stop>
      </linearGradient>
    </defs>
  </symbol>
  <symbol viewBox="0 0 30 30" fill="none" xmlns="http://www.w3.org/2000/svg" id="in">
    <path d="M19.111 14.68a4.531 4.531 0 1 1-9.062 0c0-.258.027-.51.074-.755H8.538v6.038c0 .42.34.76.76.76h10.565a.76.76 0 0 0 .759-.76v-6.038h-1.585c.047.245.074.497.074.756zm-4.531 3.021a3.022 3.022 0 1 0-.002-6.043 3.022 3.022 0 0 0 .002 6.043zm3.625-6.192h1.81a.455.455 0 0 0 .456-.453V9.245a.455.455 0 0 0-.455-.455h-1.811a.455.455 0 0 0-.455.455v1.81c.002.25.206.454.455.454zM14.58.18a14.5 14.5 0 1 0 0 29 14.5 14.5 0 0 0 0-29zm7.552 20.374c0 .922-.755 1.678-1.678 1.678H8.706a1.683 1.683 0 0 1-1.678-1.678V8.807c0-.923.755-1.678 1.678-1.678h11.748c.923 0 1.678.755 1.678 1.678v11.748z"
      fill="url(#paint0_linear)"></path>
    <defs>
      <linearGradient id="paint0_linear" x1=".089" y1="14.698" x2="29.076" y2="14.698" gradientUnits="userSpaceOnUse">
        <stop stop-color="#6011CA"></stop>
        <stop offset=".196" stop-color="#571CCD"></stop>
        <stop offset=".535" stop-color="#4038D6"></stop>
        <stop offset=".974" stop-color="#1A65E3"></stop>
        <stop offset="1" stop-color="#1868E4"></stop>
      </linearGradient>
    </defs>
  </symbol>
  <symbol viewBox="0 0 29 30" fill="none" xmlns="http://www.w3.org/2000/svg" id="tg">
    <path d="M14.5.18C6.49.18 0 6.672 0 14.68c0 8.01 6.49 14.5 14.5 14.5S29 22.69 29 14.68C29 6.672 22.51.18 14.5.18zm7.122 9.935l-2.38 11.214c-.176.795-.65.988-1.31.614l-3.625-2.672-1.748 1.684c-.193.193-.356.356-.73.356l.256-3.69 6.718-6.069c.293-.257-.064-.403-.45-.146l-8.303 5.227-3.578-1.117c-.778-.245-.795-.777.163-1.152l13.98-5.39c.65-.235 1.216.157 1.006 1.14z"
      fill="url(#paint0_linear)"></path>
    <defs>
      <linearGradient id="paint0_linear" x1=".009" y1="14.698" x2="28.996" y2="14.698" gradientUnits="userSpaceOnUse">
        <stop stop-color="#6011CA"></stop>
        <stop offset=".196" stop-color="#571CCD"></stop>
        <stop offset=".535" stop-color="#4038D6"></stop>
        <stop offset=".974" stop-color="#1A65E3"></stop>
        <stop offset="1" stop-color="#1868E4"></stop>
      </linearGradient>
    </defs>
  </symbol>
</svg>