<svg width="29" height="30" viewBox="0 0 29 30" fill="none" xmlns="http://www.w3.org/2000/svg">
<path d="M14.5 0.180664C6.48945 0.180664 0 6.67105 0 14.6807C0 22.6903 6.49039 29.1807 14.5 29.1807C22.5105 29.1807 29 22.6903 29 14.6807C29 6.67105 22.5096 0.180664 14.5 0.180664ZM21.6218 10.1146L19.242 21.3291C19.0661 22.1243 18.5927 22.317 17.9323 21.9428L14.3073 19.2711L12.5589 20.955C12.3662 21.1477 12.2025 21.3114 11.8283 21.3114L12.0855 17.6218L18.8032 11.5524C19.096 11.2951 18.7387 11.1492 18.3523 11.4065L10.0499 16.633L6.47168 15.5161C5.69429 15.271 5.67652 14.7387 6.63539 14.3645L20.6153 8.97328C21.2645 8.73941 21.8314 9.13137 21.6209 10.1136L21.6218 10.1146Z" fill="url(#paint0_linear)"/>
<defs>
<linearGradient id="paint0_linear" x1="0.00864048" y1="14.6985" x2="28.9956" y2="14.6985" gradientUnits="userSpaceOnUse">
<stop stop-color="#6011CA"/>
<stop offset="0.1959" stop-color="#571CCD"/>
<stop offset="0.535" stop-color="#4038D6"/>
<stop offset="0.9743" stop-color="#1A65E3"/>
<stop offset="1" stop-color="#1868E4"/>
</linearGradient>
</defs>
</svg>
