<svg width="52" height="39" viewBox="0 0 52 39" fill="none" xmlns="http://www.w3.org/2000/svg">
<path d="M48.5577 11.326H40.5868C40.0098 11.326 39.561 11.7962 39.561 12.3518C39.561 12.9288 40.0312 13.3776 40.5868 13.3776H48.5577C49.1347 13.3776 49.5835 12.9074 49.5835 12.3518C49.5835 11.7748 49.1134 11.326 48.5577 11.326Z" fill="url(#paint0_linear)"/>
<path d="M47.4251 32.0546C48.002 32.0546 48.4508 31.5845 48.4508 31.0289C48.4508 30.4733 47.9807 30.0031 47.4251 30.0031H39.4541C38.8771 30.0031 38.4283 30.4733 38.4283 31.0289C38.4283 31.5845 38.8985 32.0546 39.4541 32.0546H47.4251Z" fill="url(#paint1_linear)"/>
<path d="M50.2245 20.6647H42.2535C41.6766 20.6647 41.2278 21.1349 41.2278 21.6905C41.2278 22.2461 41.6979 22.7162 42.2535 22.7162H50.2245C50.8015 22.7162 51.2502 22.2461 51.2502 21.6905C51.2502 21.1349 50.8015 20.6647 50.2245 20.6647Z" fill="url(#paint2_linear)"/>
<path d="M9.30123 22.0323C9.5363 21.6049 9.5363 21.0921 9.30123 20.6647L5.90343 14.7879C5.66836 14.3605 5.21959 14.1041 4.72808 14.1041C4.23658 14.1041 3.78781 14.3605 3.55274 14.7879L0.176301 20.686C-0.0587671 21.1134 -0.0587671 21.6263 0.176301 22.0537C0.41137 22.4811 0.860137 22.7375 1.35164 22.7375H3.76644C4.30069 31.7984 11.8229 39 21.0119 39C30.5429 39 38.3001 31.2427 38.3001 21.7118C38.3001 12.5227 31.0985 5.00055 22.0377 4.4663V2.05151H26.0338C26.6108 2.05151 27.0596 1.58137 27.0596 1.02575C27.0596 0.470137 26.5895 0 26.0338 0H21.0119H15.9686C15.3916 0 14.9429 0.470137 14.9429 1.02575C14.9429 1.58137 15.413 2.05151 15.9686 2.05151H19.9648V4.42356C15.1779 4.70137 10.733 6.94521 7.65575 10.6849C7.29247 11.1337 7.35658 11.7748 7.78397 12.1381C8.23274 12.5014 8.87384 12.4373 9.23712 12.0099C12.1434 8.48384 16.4388 6.4537 20.9906 6.4537C29.3889 6.4537 36.2059 13.2921 36.2059 21.6904C36.2059 30.0888 29.3675 36.9271 20.9692 36.9271C12.9127 36.9271 6.33082 30.6444 5.79658 22.7162H8.10452C8.6174 22.7162 9.06616 22.4597 9.30123 22.0323ZM2.56973 20.6647L4.74945 16.9036L6.92918 20.6647H2.56973Z" fill="url(#paint3_linear)"/>
<path d="M21.0119 25.0668C21.2683 25.0668 21.5461 25.024 21.8239 24.9599C23.6404 24.5112 24.7516 22.6734 24.3242 20.8569L22.2086 12.2449C22.1017 11.7961 21.7598 11.4542 21.3111 11.3473C20.6486 11.1764 19.9861 11.5824 19.8365 12.2449L17.7209 20.8569C17.5927 21.3912 17.5927 21.9468 17.7209 22.4597C18.0842 24.0197 19.4732 25.0668 21.0119 25.0668ZM18.5116 21.0492L20.6272 12.4372C20.67 12.2662 20.8409 12.138 21.0119 12.138C21.0332 12.138 21.076 12.138 21.0974 12.1594C21.2469 12.2021 21.3538 12.309 21.3965 12.4586L23.5122 21.0706C23.8541 22.4383 22.9993 23.8487 21.6316 24.1692C20.2639 24.5112 18.8535 23.6564 18.533 22.2887C18.4048 21.8827 18.4048 21.4553 18.5116 21.0492Z" fill="url(#paint4_linear)"/>
<defs>
<linearGradient id="paint0_linear" x1="39.564" y1="12.3531" x2="49.582" y2="12.3531" gradientUnits="userSpaceOnUse">
<stop stop-color="#6011CA"/>
<stop offset="0.1959" stop-color="#571CCD"/>
<stop offset="0.535" stop-color="#4038D6"/>
<stop offset="0.9743" stop-color="#1A65E3"/>
<stop offset="1" stop-color="#1868E4"/>
</linearGradient>
<linearGradient id="paint1_linear" x1="38.4313" y1="31.0301" x2="48.4493" y2="31.0301" gradientUnits="userSpaceOnUse">
<stop stop-color="#6011CA"/>
<stop offset="0.1959" stop-color="#571CCD"/>
<stop offset="0.535" stop-color="#4038D6"/>
<stop offset="0.9743" stop-color="#1A65E3"/>
<stop offset="1" stop-color="#1868E4"/>
</linearGradient>
<linearGradient id="paint2_linear" x1="41.2308" y1="21.6917" x2="51.2487" y2="21.6917" gradientUnits="userSpaceOnUse">
<stop stop-color="#6011CA"/>
<stop offset="0.1959" stop-color="#571CCD"/>
<stop offset="0.535" stop-color="#4038D6"/>
<stop offset="0.9743" stop-color="#1A65E3"/>
<stop offset="1" stop-color="#1868E4"/>
</linearGradient>
<linearGradient id="paint3_linear" x1="0.0114114" y1="19.5239" x2="38.2943" y2="19.5239" gradientUnits="userSpaceOnUse">
<stop stop-color="#6011CA"/>
<stop offset="0.1959" stop-color="#571CCD"/>
<stop offset="0.535" stop-color="#4038D6"/>
<stop offset="0.9743" stop-color="#1A65E3"/>
<stop offset="1" stop-color="#1868E4"/>
</linearGradient>
<linearGradient id="paint4_linear" x1="17.6268" y1="18.1959" x2="24.4146" y2="18.1959" gradientUnits="userSpaceOnUse">
<stop stop-color="#6011CA"/>
<stop offset="0.1959" stop-color="#571CCD"/>
<stop offset="0.535" stop-color="#4038D6"/>
<stop offset="0.9743" stop-color="#1A65E3"/>
<stop offset="1" stop-color="#1868E4"/>
</linearGradient>
</defs>
</svg>
