<svg width="30" height="30" viewBox="0 0 30 30" fill="none" xmlns="http://www.w3.org/2000/svg">
<path d="M14.9194 0.180664C6.9112 0.180664 0.419434 6.67244 0.419434 14.6807C0.419434 22.6889 6.9112 29.1807 14.9194 29.1807C22.9277 29.1807 29.4194 22.6889 29.4194 14.6807C29.4194 6.67244 22.9277 0.180664 14.9194 0.180664ZM20.4959 16.54C20.4959 16.54 21.7782 17.8057 22.0939 18.3933C22.103 18.4054 22.1075 18.4174 22.1105 18.4235C22.2389 18.6395 22.2691 18.8071 22.2057 18.9325C22.1 19.1409 21.7375 19.2436 21.6136 19.2527H19.348C19.1909 19.2527 18.8616 19.2119 18.4629 18.937C18.1563 18.7225 17.8542 18.3706 17.5596 18.0277C17.1201 17.5172 16.7395 17.0762 16.3558 17.0762C16.3071 17.0761 16.2587 17.0837 16.2123 17.0988C15.9223 17.1925 15.5508 17.6063 15.5508 18.7089C15.5508 19.0533 15.2789 19.2512 15.0871 19.2512H14.0494C13.696 19.2512 11.8548 19.1273 10.2235 17.407C8.22678 15.2999 6.42938 11.0738 6.41428 11.0345C6.301 10.7611 6.53511 10.6146 6.79037 10.6146H9.07865C9.38376 10.6146 9.48344 10.8004 9.55292 10.965C9.63449 11.1569 9.93355 11.9196 10.4244 12.7775C11.2204 14.1762 11.7083 14.7441 12.0995 14.7441C12.1728 14.7432 12.2449 14.7246 12.3094 14.6897C12.82 14.4058 12.7248 12.5857 12.7021 12.2081C12.7021 12.1371 12.7006 11.394 12.4393 11.0375C12.252 10.7793 11.9333 10.6811 11.74 10.6448C11.8183 10.5369 11.9214 10.4493 12.0406 10.3896C12.391 10.2144 13.0224 10.1887 13.6492 10.1887H13.9981C14.6778 10.1977 14.853 10.2415 15.0992 10.3035C15.5976 10.4228 15.6082 10.7445 15.5644 11.8456C15.5508 12.1583 15.5372 12.5117 15.5372 12.9286C15.5372 13.0192 15.5327 13.1159 15.5327 13.2186C15.5176 13.7789 15.4994 14.4148 15.8952 14.6761C15.9468 14.7085 16.0064 14.7258 16.0674 14.726C16.2048 14.726 16.6187 14.726 17.7394 12.8032C18.085 12.1843 18.3854 11.5412 18.6381 10.8789C18.6607 10.8397 18.7272 10.7188 18.8057 10.672C18.8637 10.6425 18.928 10.6274 18.993 10.6282H21.6831C21.9761 10.6282 22.177 10.672 22.2147 10.7853C22.2812 10.965 22.2027 11.5133 20.9747 13.1763L20.4264 13.8998C19.3132 15.3588 19.3132 15.4329 20.4959 16.54Z" fill="url(#paint0_linear)"/>
<defs>
<linearGradient id="paint0_linear" x1="0.428074" y1="14.6985" x2="29.415" y2="14.6985" gradientUnits="userSpaceOnUse">
<stop stop-color="#6011CA"/>
<stop offset="0.1959" stop-color="#571CCD"/>
<stop offset="0.535" stop-color="#4038D6"/>
<stop offset="0.9743" stop-color="#1A65E3"/>
<stop offset="1" stop-color="#1868E4"/>
</linearGradient>
</defs>
</svg>
