<svg width="94" height="90" viewBox="0 0 94 90" fill="none" xmlns="http://www.w3.org/2000/svg">
<path d="M30.4185 31.3779V51.3345H39.4613V31.3779H30.4185ZM38.0581 49.9313H31.9776V32.7811H38.0581V49.9313Z" fill="url(#paint0_linear)"/>
<path d="M16.0747 25.6089V51.3341H25.1175V25.6089H16.0747ZM23.7143 49.9309H17.6338V27.168H23.7143V49.9309Z" fill="url(#paint1_linear)"/>
<path d="M45.0742 19.9966V51.3346H54.117V19.9966H45.0742ZM52.7138 49.9314H46.6333V21.5557H52.7138V49.9314Z" fill="url(#paint2_linear)"/>
<path d="M86.7023 90C86.2346 90 85.7669 90 85.1432 89.8441C83.74 89.5323 82.3368 88.7527 81.0896 87.6613C75.009 82.0486 70.1758 77.5272 64.719 72.3821L61.6008 69.4198L56.1439 64.2748C55.8321 64.4307 55.6762 64.5866 55.3643 64.8984L54.4289 65.5221C53.9612 65.8339 53.8052 65.9898 53.4934 66.1457C53.3375 66.1457 53.1816 66.3016 53.0257 66.4575C52.2461 66.9253 51.3107 67.393 50.3752 67.8607C45.6979 70.0435 40.7088 71.1348 35.4078 71.1348C27.6123 71.1348 19.9727 68.4844 13.7363 63.6512C5.47304 57.1029 0.483905 47.4365 0.0161737 36.8346C-0.295647 26.3886 3.91393 16.4103 11.5535 9.39435C12.0213 9.08253 12.3331 8.6148 12.8008 8.30298C13.1126 7.99116 13.5804 7.67934 13.8922 7.36752C14.3599 7.0557 14.8277 6.74388 15.2954 6.43206C18.5695 4.0934 22.3114 2.37839 26.0532 1.44292C26.5209 1.28701 27.1446 1.1311 27.7682 0.975194C28.3919 0.819283 28.8596 0.819283 29.4832 0.663373C30.1069 0.507462 30.5746 0.507462 31.0423 0.351552C31.3542 0.351552 31.666 0.351552 31.8219 0.195642C32.7573 0.0397315 33.6928 0.0397313 34.9401 0.0397313C37.5906 -0.116179 40.241 0.195642 43.0474 0.819283C47.8807 1.91066 52.4021 3.93749 56.4557 6.89979C56.7675 7.21161 57.2353 7.52343 57.5471 7.83525C58.9503 8.92662 60.3535 10.1739 61.6008 11.5771C62.2244 12.3566 62.848 12.9803 63.4717 13.7598L64.2512 14.8512C64.2512 15.0071 64.4071 15.0071 64.4071 15.163C64.719 15.6308 64.8749 15.9426 65.1867 16.2544C65.6544 17.034 66.1222 17.8135 66.5899 18.749C66.9017 19.5285 67.3694 20.1522 67.6813 20.9317V21.0876C67.9931 21.8672 68.3049 22.4908 68.4608 23.1145L68.7726 23.4263V23.894L69.0845 24.8295C69.5522 26.0768 69.864 27.48 70.1758 28.7272C70.4876 29.9745 70.6436 31.3777 70.6436 32.7809C70.6436 33.2486 70.6436 33.5605 70.6436 34.0282C70.6436 34.1841 70.6436 34.34 70.6436 34.4959C70.7995 39.9528 69.7081 45.5656 67.3694 50.5547C67.0576 51.0224 66.9017 51.6461 66.5899 52.2697C66.434 52.5815 66.1222 53.0493 65.9662 53.517L75.165 62.248L75.7886 61.4684C76.7241 60.377 77.8154 59.2857 78.7509 58.1943C80.9336 55.8556 82.8046 55.6997 85.2991 57.7266C87.6378 59.7534 89.8205 61.7802 91.6915 63.8071C93.8742 65.9898 93.8742 67.8607 91.6915 70.1994C90.9119 70.9789 90.2883 71.7585 89.5087 72.538L87.4819 74.5649L88.4173 75.3444C89.6646 76.2799 90.6001 77.2154 91.5355 78.1508C92.6269 79.2422 93.2506 80.4895 93.4065 81.8927C93.7183 83.7636 93.0947 85.6345 92.0033 87.1936C90.756 88.7527 89.041 89.6882 87.1701 89.8441C87.0141 90 86.8582 90 86.7023 90ZM67.5254 69.5758C72.8263 74.5649 77.6595 79.0863 83.8959 84.855C84.5196 85.4786 85.2991 85.9463 86.0787 86.1022C86.5464 86.2582 86.7023 86.2582 86.8582 86.2582C87.6378 86.2582 88.4173 85.7904 89.041 85.0109C89.6646 84.2313 89.8205 83.4518 89.6646 82.5163C89.5087 81.8927 89.3528 81.4249 88.8851 80.9572C88.1055 80.1777 87.1701 79.3981 86.0787 78.4626L82.025 75.0326L86.8582 70.0435C87.6378 69.2639 88.2614 68.6403 88.8851 67.8607C89.1969 67.5489 89.3528 67.393 89.3528 67.2371C89.1969 67.0812 89.1969 66.9253 88.8851 66.7694C87.0141 64.8984 84.8314 62.8716 82.6487 61.0007C82.4927 60.8448 82.1809 60.6889 82.1809 60.533C82.025 60.6889 81.8691 60.8448 81.5573 61.1566C80.4659 62.248 79.5304 63.3393 78.595 64.2748L75.3209 68.0166L60.8212 54.2965L61.7567 52.8933C62.2244 52.1138 62.848 51.1783 63.1599 50.5547C63.4717 50.087 63.6276 49.6192 63.9394 49.1515C66.1222 44.6301 67.0576 39.641 66.9017 34.8077V34.6518V34.4959C66.9017 34.0282 66.9017 33.7164 66.9017 33.2486C66.7458 32.0014 66.5899 30.91 66.434 29.6627C66.2781 28.4154 65.9662 27.324 65.4985 26.2327L65.0308 24.8295C64.719 24.0499 64.4071 23.4263 64.0953 22.6467C63.7835 21.8672 63.4717 21.2435 63.004 20.6199C62.5362 19.8403 62.0685 19.0608 61.6008 18.4372C61.4448 18.1253 61.133 17.8135 60.9771 17.5017L60.8212 17.3458L60.0417 16.2544C59.5739 15.6308 58.9503 15.0071 58.3266 14.3835C57.2353 13.1362 55.988 12.0448 54.7407 11.1094C54.4289 10.7975 54.1171 10.6416 53.6493 10.3298C50.0634 7.67934 46.0097 5.80841 41.8001 4.87295C39.4615 4.40522 36.9669 4.0934 34.6283 4.24931C33.5369 4.24931 32.7573 4.40522 31.9778 4.40522C31.666 4.40522 31.3542 4.40522 31.1982 4.56113C30.7305 4.56113 30.2628 4.71704 29.951 4.71704C29.3273 4.87295 28.8596 4.87295 28.3919 5.02886C27.9241 5.18477 27.3005 5.34068 26.8328 5.34068C23.7145 6.12023 20.4404 7.67934 17.4781 9.70617C17.0104 10.018 16.6986 10.3298 16.2309 10.6416C15.919 10.9535 15.6072 11.1094 15.2954 11.4212C14.9836 11.733 14.5158 12.0448 14.204 12.3566C7.34396 18.5931 3.60211 27.48 3.91393 36.8346C4.22575 46.1892 8.74715 54.9202 16.0749 60.533C21.5318 64.7425 28.5478 67.2371 35.4078 67.2371C40.0851 67.2371 44.6065 66.3016 48.8161 64.2748C49.5957 63.963 50.3752 63.4952 51.1548 63.0275C51.3107 62.8716 51.4666 62.8716 51.4666 62.8716C51.7784 62.7157 52.0902 62.5598 52.402 62.4039C52.402 62.4039 52.558 62.248 52.7139 62.248L53.1816 61.9361C53.8052 61.4684 54.4289 61.0007 55.2084 60.377L56.4557 59.2857L67.5254 69.5758Z" fill="url(#paint3_linear)"/>
<defs>
<linearGradient id="paint0_linear" x1="30.4212" y1="41.3684" x2="39.4599" y2="41.3684" gradientUnits="userSpaceOnUse">
<stop stop-color="#6011CA"/>
<stop offset="0.1959" stop-color="#571CCD"/>
<stop offset="0.535" stop-color="#4038D6"/>
<stop offset="0.9743" stop-color="#1A65E3"/>
<stop offset="1" stop-color="#1868E4"/>
</linearGradient>
<linearGradient id="paint1_linear" x1="16.0774" y1="38.4873" x2="25.1161" y2="38.4873" gradientUnits="userSpaceOnUse">
<stop stop-color="#6011CA"/>
<stop offset="0.1959" stop-color="#571CCD"/>
<stop offset="0.535" stop-color="#4038D6"/>
<stop offset="0.9743" stop-color="#1A65E3"/>
<stop offset="1" stop-color="#1868E4"/>
</linearGradient>
<linearGradient id="paint2_linear" x1="45.0769" y1="35.6848" x2="54.1156" y2="35.6848" gradientUnits="userSpaceOnUse">
<stop stop-color="#6011CA"/>
<stop offset="0.1959" stop-color="#571CCD"/>
<stop offset="0.535" stop-color="#4038D6"/>
<stop offset="0.9743" stop-color="#1A65E3"/>
<stop offset="1" stop-color="#1868E4"/>
</linearGradient>
<linearGradient id="paint3_linear" x1="0.0278542" y1="45.0552" x2="93.4725" y2="45.0552" gradientUnits="userSpaceOnUse">
<stop stop-color="#6011CA"/>
<stop offset="0.1959" stop-color="#571CCD"/>
<stop offset="0.535" stop-color="#4038D6"/>
<stop offset="0.9743" stop-color="#1A65E3"/>
<stop offset="1" stop-color="#1868E4"/>
</linearGradient>
</defs>
</svg>
