<svg width="102" height="90" viewBox="0 0 102 90" fill="none" xmlns="http://www.w3.org/2000/svg">
<path d="M75.5632 54.4128C75.5027 53.5409 75.3145 50.8921 71.6919 50.1341C70.2536 49.8337 68.9707 47.5165 68.9292 45.8295C68.9171 45.3477 69.0018 44.9523 69.1761 44.6709C70.15 43.0651 71.1428 40.6477 68.5407 38.1647C67.465 37.1356 66.2477 35.9684 64.4588 35.9684C63.4228 35.9684 62.4352 36.3655 61.4337 37.1874C61.3301 37.2617 60.9589 37.3567 60.6791 37.4274L60.5065 37.4758C58.6002 37.3049 56.2381 35.554 56.0775 34.979C55.7978 33.8463 55.0536 30.8367 51.3809 30.8367C51.2721 30.8367 51.1599 30.8384 51.1565 30.8419L50.4641 30.835C46.7603 30.835 45.9885 33.9585 45.7347 34.9859C45.5378 35.6403 43.0997 37.31 41.3057 37.4758L41.0519 37.4067C40.8671 37.3601 40.4769 37.26 40.3664 37.1736C39.3753 36.3604 38.3945 35.9667 37.3637 35.9667C35.6146 35.9667 34.4128 37.0959 33.3561 38.0888L33.2352 38.201C30.6866 40.6874 31.6795 43.091 32.655 44.6951C32.9624 45.1854 33.0297 46.3285 32.453 47.684C31.9039 48.9738 30.9646 49.9563 30.1151 50.1341C26.4942 50.8939 26.3112 53.5944 26.249 54.5458L26.2525 56.5729C26.4251 58.9299 27.7305 60.3578 30.1168 60.8102C30.9681 60.9898 31.8797 61.9377 32.4409 63.2293C33.0176 64.5519 33.0021 65.7727 32.7051 66.27C32.1146 67.1851 30.3136 69.972 33.2974 72.802C34.3662 73.8346 35.58 75.0036 37.3516 75.0036C38.3773 75.0036 39.3908 74.5909 40.3405 73.7966C40.4648 73.7068 40.9224 73.5877 41.2108 73.5117L41.3144 73.4824C43.1826 73.6326 45.5326 75.361 45.7398 75.9688C45.9919 76.9927 46.7655 80.1111 50.4589 80.1111C50.5659 80.1111 50.6764 80.1094 50.6851 80.1059L51.0339 80.1025C51.1634 80.1094 51.2946 80.1094 51.4137 80.1094H51.4258H51.431C55.0709 80.0662 55.8306 76.9772 56.0723 75.993C56.0741 75.9895 56.1673 75.746 56.6456 75.3144C57.6712 74.3837 59.372 73.5842 60.5151 73.4841L60.6998 73.5324C60.9105 73.5894 61.3508 73.7034 61.4389 73.7569C62.4352 74.5943 63.4263 75.0018 64.4692 75.0018C66.2391 75.0018 67.446 73.8398 68.5666 72.7623C71.4778 70.0014 69.7425 67.211 69.1744 66.2993C68.8584 65.79 68.7894 64.6141 69.3816 63.2379C69.929 61.9619 70.8528 60.9881 71.6677 60.8188C74.4011 60.2974 75.2489 58.5983 75.4734 57.2895C75.5217 57.0529 75.5528 56.8112 75.5735 56.4365L75.5632 54.4128ZM40.9189 69.7009L40.4752 69.7976C40.4027 69.8218 40.3198 69.8425 40.1454 69.8874C39.579 70.0376 38.7209 70.2655 37.9577 70.8664C37.5364 71.2187 37.3499 71.2308 37.3499 71.2308C37.0857 71.2187 36.3519 70.5107 35.8494 70.0255C35.3055 69.511 35.1777 69.3884 35.8995 68.266C36.9355 66.5514 36.9355 64.1065 35.896 61.7219C34.8289 59.2735 32.9486 57.5502 30.8524 57.1117C30.0581 56.9614 30.0529 56.882 30.0167 56.4348L30.0115 54.6788C30.0546 54.0641 30.0581 54.0002 30.8852 53.8258C32.9814 53.3872 34.8635 51.645 35.9219 49.162C36.932 46.7913 36.9044 44.3756 35.8615 42.7128C35.1725 41.5801 35.2761 41.4782 35.934 40.8394C36.3743 40.4284 37.1064 39.7377 37.3637 39.7377C37.3654 39.7377 37.5588 39.7498 37.9439 40.0658C38.6743 40.6909 39.5376 40.9119 40.1713 41.0742C40.2663 41.0984 40.3543 41.1208 40.4147 41.1415L40.7428 41.2641L41.0882 41.2607C44.1547 41.2417 48.7374 38.6292 49.3987 35.8855C49.7164 34.606 49.8873 34.606 50.4571 34.606L50.6816 34.6112L51.4241 34.606C51.9317 34.606 52.101 34.606 52.4221 35.9062C53.1335 38.6396 57.704 41.24 60.7257 41.259L61.0745 41.2624L61.3819 41.1467C61.4613 41.1174 61.5563 41.0966 61.6979 41.0587C62.2677 40.9136 63.1276 40.6926 63.8407 40.09C64.2672 39.7429 64.4571 39.7377 64.4588 39.7377C64.7368 39.7429 65.5018 40.4768 65.9611 40.9171C66.5412 41.4696 66.6448 41.5698 65.9645 42.6921C65.4068 43.5848 65.1288 44.7037 65.1581 45.9227C65.2359 49.162 67.4633 53.1057 70.9218 53.8258C71.7541 54.0002 71.7575 54.071 71.7955 54.5475L71.799 56.3208C71.7921 56.4072 71.7817 56.49 71.7627 56.5988C71.7196 56.8388 71.6971 56.9718 70.9218 57.1203C68.8394 57.5571 66.9643 59.2873 65.9075 61.7513C64.8836 64.1341 64.9043 66.5773 65.9611 68.2868C66.6431 69.3815 66.4963 69.5196 65.892 70.0963C65.4551 70.5159 64.7248 71.2169 64.464 71.2325C64.464 71.2325 64.2724 71.2187 63.8044 70.8267C63.0792 70.2621 62.2245 70.0359 61.6426 69.8839C61.5269 69.8546 61.4233 69.8287 61.1902 69.751L60.7361 69.7044C58.3153 69.7044 55.6027 71.1651 54.1074 72.5206C53.1922 73.3459 52.6224 74.2024 52.4118 75.064C52.101 76.3314 51.9197 76.3331 51.3291 76.34L51.1323 76.3366L50.4053 76.3435C49.915 76.3435 49.7129 76.3435 49.397 75.0726C48.7287 72.3065 44.1409 69.7044 41.0709 69.7044H40.9189V69.7009Z" fill="url(#paint0_linear)"/>
<path d="M50.9285 67.1508H50.9199C49.0222 67.137 47.2092 66.6863 45.524 65.8091C41.9135 63.9236 39.541 60.3908 39.1767 56.3555L39.1715 54.7273C39.724 48.5147 44.7694 43.8474 50.913 43.7974C55.5319 43.8371 59.7363 46.5825 61.6322 50.7904C62.1744 51.9939 62.5111 53.2838 62.6337 54.6237L62.6389 56.2537C62.1865 61.2973 58.6572 65.488 53.8518 66.7571C52.9177 67.0092 51.9334 67.1421 50.9302 67.1508H50.9285ZM50.913 45.4239C45.6259 45.4671 41.2712 49.4972 40.7963 54.7963L40.8015 56.2796C41.1123 59.6863 43.1584 62.7356 46.2751 64.3622C47.7272 65.1185 49.2899 65.507 50.9216 65.5191C51.7815 65.5104 52.6276 65.3982 53.4287 65.1806C57.5814 64.0842 60.6256 60.4668 61.0123 56.1777L61.0072 54.6945C60.9036 53.6084 60.6135 52.4947 60.1456 51.4569C58.5121 47.8274 54.8861 45.4584 50.913 45.4239Z" fill="url(#paint1_linear)"/>
<path d="M43.324 8.56787C45.3114 8.56787 47.1469 10.3895 47.1918 12.4063C47.2522 14.5128 45.4012 16.3949 43.2791 16.3949C41.233 16.3949 39.4407 14.6182 39.3958 12.5876C39.3509 10.4638 41.2019 8.58168 43.324 8.56787Z" fill="url(#paint2_linear)"/>
<path d="M29.8663 8.58152C31.9884 8.64195 33.615 10.3583 33.5994 12.5097C33.5839 14.6923 31.9746 16.3637 29.8059 16.3775C27.6234 16.393 25.9071 14.6163 25.9675 12.3733C25.9986 10.2685 27.8202 8.52281 29.8663 8.58152Z" fill="url(#paint3_linear)"/>
<path d="M16.3206 8.58134C18.3374 8.59688 20.1746 10.4168 20.204 12.4353C20.2488 14.5125 18.3685 16.3946 16.2447 16.3791C14.2124 16.3791 12.4062 14.5885 12.3769 12.5562C12.332 10.4479 14.2124 8.53645 16.3206 8.58134Z" fill="url(#paint4_linear)"/>
<path d="M89.3836 0H12.4459C5.58755 0 0 5.58755 0 12.4287V77.5713C0 84.4297 5.58755 90 12.4459 90H59.1649H61.5598H89.3836C96.242 90 101.812 84.428 101.812 77.5713V12.4287C101.812 5.58755 96.2402 0 89.3836 0ZM3.90921 12.4287C3.90921 7.73727 7.73728 3.90921 12.4459 3.90921H89.3836C94.075 3.90921 97.903 7.73727 97.903 12.4287V20.5078V21.6716L89.9344 21.7252V15.3951C89.9344 14.4748 89.1867 13.7254 88.2647 13.7254H71.2845C70.4056 13.7254 69.6925 14.4403 69.6925 15.3174V21.6526H3.90921V20.5182V12.4287ZM97.903 77.573C97.903 82.2645 94.075 86.0925 89.3836 86.0925H61.5598H59.1649H12.4459C7.739 86.0925 3.90921 82.2645 3.90921 77.573V24.5293V23.3949H69.9204C70.7837 23.3949 71.4347 22.7387 71.4347 21.8685L71.3742 15.4694L88.1904 15.4849V21.8201C88.1904 22.6886 88.8984 23.3966 89.7686 23.3966H97.903V24.531V77.573Z" fill="url(#paint5_linear)"/>
<defs>
<linearGradient id="paint0_linear" x1="26.2637" y1="55.5033" x2="75.566" y2="55.5033" gradientUnits="userSpaceOnUse">
<stop stop-color="#6011CA"/>
<stop offset="0.1959" stop-color="#571CCD"/>
<stop offset="0.535" stop-color="#4038D6"/>
<stop offset="0.9743" stop-color="#1A65E3"/>
<stop offset="1" stop-color="#1868E4"/>
</linearGradient>
<linearGradient id="paint1_linear" x1="39.1785" y1="55.4884" x2="62.6353" y2="55.4884" gradientUnits="userSpaceOnUse">
<stop stop-color="#6011CA"/>
<stop offset="0.1959" stop-color="#571CCD"/>
<stop offset="0.535" stop-color="#4038D6"/>
<stop offset="0.9743" stop-color="#1A65E3"/>
<stop offset="1" stop-color="#1868E4"/>
</linearGradient>
<linearGradient id="paint2_linear" x1="39.3973" y1="12.4862" x2="47.1921" y2="12.4862" gradientUnits="userSpaceOnUse">
<stop stop-color="#6011CA"/>
<stop offset="0.1959" stop-color="#571CCD"/>
<stop offset="0.535" stop-color="#4038D6"/>
<stop offset="0.9743" stop-color="#1A65E3"/>
<stop offset="1" stop-color="#1868E4"/>
</linearGradient>
<linearGradient id="paint3_linear" x1="25.9682" y1="12.4836" x2="33.5984" y2="12.4836" gradientUnits="userSpaceOnUse">
<stop stop-color="#6011CA"/>
<stop offset="0.1959" stop-color="#571CCD"/>
<stop offset="0.535" stop-color="#4038D6"/>
<stop offset="0.9743" stop-color="#1A65E3"/>
<stop offset="1" stop-color="#1868E4"/>
</linearGradient>
<linearGradient id="paint4_linear" x1="12.3784" y1="12.4846" x2="20.2035" y2="12.4846" gradientUnits="userSpaceOnUse">
<stop stop-color="#6011CA"/>
<stop offset="0.1959" stop-color="#571CCD"/>
<stop offset="0.535" stop-color="#4038D6"/>
<stop offset="0.9743" stop-color="#1A65E3"/>
<stop offset="1" stop-color="#1868E4"/>
</linearGradient>
<linearGradient id="paint5_linear" x1="0.0303347" y1="45.0552" x2="101.797" y2="45.0552" gradientUnits="userSpaceOnUse">
<stop stop-color="#6011CA"/>
<stop offset="0.1959" stop-color="#571CCD"/>
<stop offset="0.535" stop-color="#4038D6"/>
<stop offset="0.9743" stop-color="#1A65E3"/>
<stop offset="1" stop-color="#1868E4"/>
</linearGradient>
</defs>
</svg>
