<svg width="105" height="90" viewBox="0 0 105 90" fill="none" xmlns="http://www.w3.org/2000/svg">
<path d="M51.8783 73.6417C49.8087 73.5659 48.2044 71.8496 48.2303 69.7404C48.2561 67.6571 49.9345 65.9408 51.9799 65.9287C54.0874 65.9287 55.7537 67.7088 55.7037 69.9299C55.652 71.9995 53.872 73.7175 51.8783 73.6417Z" fill="url(#paint0_linear)"/>
<path d="M61.3645 52.478H50.7031V31.2139H61.3645V52.478ZM52.3298 50.8513H59.7395V32.8406H52.3298V50.8513Z" fill="url(#paint1_linear)"/>
<path d="M75.4034 52.4782H64.7421V13.0586H75.4034V52.4782ZM66.3688 50.8515H73.7784V14.6853H66.3688V50.8515Z" fill="url(#paint2_linear)"/>
<path d="M89.6175 52.4777H78.9562V19.4287H89.6175V52.4777ZM80.5829 50.851H87.9926V21.0537H80.5829V50.851Z" fill="url(#paint3_linear)"/>
<path d="M19.663 49.2367L18.9892 48.7731C14.8812 45.9592 12.4291 41.3083 12.4291 36.3352C12.4291 33.6005 13.17 30.9192 14.571 28.586L15.0225 27.8364L23.2266 33.6246L22.9422 34.2398C22.6372 34.8963 22.4839 35.6011 22.4839 36.3369C22.4839 37.9791 23.2903 39.5196 24.6413 40.4588L25.2995 40.9171L19.663 49.2367ZM15.5377 30.1903C14.5658 32.0824 14.054 34.1898 14.054 36.3352C14.054 40.5001 15.9806 44.4083 19.2477 46.9517L23.0784 41.2928C21.6757 40.04 20.8572 38.2393 20.8572 36.3352C20.8572 35.5959 20.9761 34.8756 21.2104 34.1915L15.5377 30.1903Z" fill="url(#paint4_linear)"/>
<path d="M28.9996 53.4932C26.3184 53.4932 23.7456 52.9039 21.3556 51.7442L20.5112 51.3323L27.0473 41.6842L27.5935 41.8152C28.0484 41.9255 28.5223 41.9806 28.9996 41.9806C32.3237 41.9806 35.0273 39.2769 35.0273 35.9529C35.0273 32.6289 32.3237 29.9252 28.9996 29.9252C27.416 29.9252 25.922 30.5352 24.7899 31.6398L24.3057 32.1136L14.8988 25.4811L15.4554 24.8056C18.8018 20.7423 23.7387 18.4126 28.9979 18.4126C38.6701 18.4126 46.5382 26.2807 46.5382 35.9529C46.5382 45.6251 38.6701 53.4932 28.9996 53.4932ZM22.9254 50.6689C24.845 51.465 26.8853 51.87 28.9996 51.87C37.7758 51.87 44.915 44.7308 44.915 35.9546C44.915 27.1784 37.7758 20.0393 28.9996 20.0393C24.5211 20.0393 20.301 21.902 17.2871 25.1778L24.1609 30.0251C25.524 28.9085 27.2179 28.302 28.9979 28.302C33.218 28.302 36.6506 31.7345 36.6506 35.9546C36.6506 40.1747 33.218 43.6073 28.9979 43.6073C28.5861 43.6073 28.1759 43.5746 27.7727 43.5091L22.9254 50.6689Z" fill="url(#paint5_linear)"/>
<path d="M94.6063 0H9.95657C4.4665 0 0 4.4665 0 9.95656V70.2095C0 75.6995 4.4665 80.166 9.95657 80.166H94.6063C100.096 80.166 104.563 75.6978 104.563 70.2095V9.95656C104.563 4.4665 100.096 0 94.6063 0ZM9.95657 4.06327H94.6063C97.8563 4.06327 100.5 6.70664 100.5 9.95656V58.2609H4.06327V9.95656C4.06327 6.70664 6.70664 4.06327 9.95657 4.06327ZM94.6063 76.1045H9.95657C6.70664 76.1045 4.06327 73.4611 4.06327 70.2112V62.3259H100.5V70.2112C100.5 73.4611 97.8563 76.1045 94.6063 76.1045Z" fill="url(#paint6_linear)"/>
<path d="M69.76 85.9351H34.8035V90.0001H69.76V85.9351Z" fill="url(#paint7_linear)"/>
<defs>
<linearGradient id="paint0_linear" x1="48.2322" y1="69.7911" x2="55.7037" y2="69.7911" gradientUnits="userSpaceOnUse">
<stop stop-color="#6011CA"/>
<stop offset="0.1959" stop-color="#571CCD"/>
<stop offset="0.535" stop-color="#4038D6"/>
<stop offset="0.9743" stop-color="#1A65E3"/>
<stop offset="1" stop-color="#1868E4"/>
</linearGradient>
<linearGradient id="paint1_linear" x1="50.7063" y1="41.859" x2="61.3629" y2="41.859" gradientUnits="userSpaceOnUse">
<stop stop-color="#6011CA"/>
<stop offset="0.1959" stop-color="#571CCD"/>
<stop offset="0.535" stop-color="#4038D6"/>
<stop offset="0.9743" stop-color="#1A65E3"/>
<stop offset="1" stop-color="#1868E4"/>
</linearGradient>
<linearGradient id="paint2_linear" x1="64.7452" y1="32.7926" x2="75.4018" y2="32.7926" gradientUnits="userSpaceOnUse">
<stop stop-color="#6011CA"/>
<stop offset="0.1959" stop-color="#571CCD"/>
<stop offset="0.535" stop-color="#4038D6"/>
<stop offset="0.9743" stop-color="#1A65E3"/>
<stop offset="1" stop-color="#1868E4"/>
</linearGradient>
<linearGradient id="paint3_linear" x1="78.9594" y1="35.9735" x2="89.6159" y2="35.9735" gradientUnits="userSpaceOnUse">
<stop stop-color="#6011CA"/>
<stop offset="0.1959" stop-color="#571CCD"/>
<stop offset="0.535" stop-color="#4038D6"/>
<stop offset="0.9743" stop-color="#1A65E3"/>
<stop offset="1" stop-color="#1868E4"/>
</linearGradient>
<linearGradient id="paint4_linear" x1="12.4329" y1="38.5497" x2="25.2976" y2="38.5497" gradientUnits="userSpaceOnUse">
<stop stop-color="#6011CA"/>
<stop offset="0.1959" stop-color="#571CCD"/>
<stop offset="0.535" stop-color="#4038D6"/>
<stop offset="0.9743" stop-color="#1A65E3"/>
<stop offset="1" stop-color="#1868E4"/>
</linearGradient>
<linearGradient id="paint5_linear" x1="14.9082" y1="35.9744" x2="46.5334" y2="35.9744" gradientUnits="userSpaceOnUse">
<stop stop-color="#6011CA"/>
<stop offset="0.1959" stop-color="#571CCD"/>
<stop offset="0.535" stop-color="#4038D6"/>
<stop offset="0.9743" stop-color="#1A65E3"/>
<stop offset="1" stop-color="#1868E4"/>
</linearGradient>
<linearGradient id="paint6_linear" x1="0.0311543" y1="40.1322" x2="104.547" y2="40.1322" gradientUnits="userSpaceOnUse">
<stop stop-color="#6011CA"/>
<stop offset="0.1959" stop-color="#571CCD"/>
<stop offset="0.535" stop-color="#4038D6"/>
<stop offset="0.9743" stop-color="#1A65E3"/>
<stop offset="1" stop-color="#1868E4"/>
</linearGradient>
<linearGradient id="paint7_linear" x1="34.8139" y1="87.9701" x2="69.7547" y2="87.9701" gradientUnits="userSpaceOnUse">
<stop stop-color="#6011CA"/>
<stop offset="0.1959" stop-color="#571CCD"/>
<stop offset="0.535" stop-color="#4038D6"/>
<stop offset="0.9743" stop-color="#1A65E3"/>
<stop offset="1" stop-color="#1868E4"/>
</linearGradient>
</defs>
</svg>
