<svg width="102" height="90" viewBox="0 0 102 90" fill="none" xmlns="http://www.w3.org/2000/svg">
<path d="M51.7695 34.9962V55.8476C51.7695 56.3207 51.3793 56.7109 50.9061 56.7109C47.9259 56.7109 45.4982 59.1387 45.4982 62.1189C45.4982 63.9751 46.4271 65.6707 47.9742 66.6808C48.3817 66.9416 48.4957 67.463 48.235 67.8705C47.9915 68.2452 47.4372 68.3747 47.0453 68.1312C44.9923 66.8121 43.7715 64.5639 43.7715 62.1207C43.7715 58.7156 46.1992 55.7837 49.5542 55.1328L50.0428 55.0326V34.9962C50.0428 34.523 50.433 34.1328 50.9061 34.1328C51.3793 34.1328 51.7695 34.5248 51.7695 34.9962Z" fill="url(#paint0_linear)"/>
<path d="M58.041 62.1189C58.041 65.5395 55.6133 68.4714 52.2583 69.1241L51.7697 69.2225V76.1465C51.7697 76.6196 51.3794 77.0098 50.9063 77.0098C50.4332 77.0098 50.043 76.6196 50.043 76.1465V68.4092C50.043 67.9206 50.4332 67.5459 50.9063 67.5459C53.8866 67.5459 56.3143 65.1182 56.3143 62.1206C56.3143 60.28 55.3853 58.5689 53.8382 57.576C53.4307 57.3153 53.3168 56.7783 53.5775 56.3863C53.7398 56.1411 54.0005 55.9961 54.2941 55.9961C54.4736 55.9961 54.6204 56.0289 54.7672 56.1256C56.8202 57.4448 58.041 59.6929 58.041 62.1189Z" fill="url(#paint1_linear)"/>
<path d="M27.3024 34.9635V42.245C27.3024 42.7181 26.9278 43.1083 26.4391 43.1083C23.4588 43.1083 21.0311 45.536 21.0311 48.5163C21.0311 50.3742 21.9601 52.0681 23.5227 53.0782C23.7179 53.2077 23.8491 53.3873 23.8974 53.6152C23.9458 53.8431 23.8974 54.071 23.7679 54.2661C23.5227 54.6564 22.9857 54.7703 22.5955 54.5269C20.5425 53.2077 19.3044 50.9595 19.3044 48.5163C19.3044 45.1113 21.7477 42.1638 25.0871 41.5284L25.5913 41.43V34.9635C25.5913 34.4904 25.966 34.1157 26.4391 34.1157C26.9278 34.1174 27.3024 34.4921 27.3024 34.9635Z" fill="url(#paint2_linear)"/>
<path d="M33.5738 48.5178C33.5738 51.9384 31.1461 54.8703 27.8066 55.523L27.3025 55.6197V76.1448C27.3025 76.6179 26.9278 77.0081 26.4391 77.0081C25.966 77.0081 25.5913 76.6179 25.5913 76.1448V54.7891C25.5913 54.316 25.966 53.9413 26.4391 53.9413C29.4366 53.9413 31.8644 51.5136 31.8644 48.5161C31.8644 46.6754 30.9354 44.9643 29.3727 43.9714C29.1776 43.8419 29.0464 43.6451 28.9981 43.4344C28.9497 43.2065 28.9981 42.9786 29.112 42.7835C29.2743 42.54 29.5523 42.376 29.8459 42.376C30.0082 42.376 30.1722 42.4243 30.3017 42.5227C32.3513 43.8419 33.5738 46.0901 33.5738 48.5178Z" fill="url(#paint3_linear)"/>
<path d="M76.2215 34.9635V43.4675C76.2215 43.9406 75.8468 44.3308 75.3737 44.3308C72.3762 44.3308 69.9485 46.7585 69.9485 49.7388C69.9485 51.5967 70.8774 53.2906 72.4401 54.3007C72.6352 54.4302 72.7664 54.6097 72.8147 54.8377C72.8631 55.0656 72.8147 55.2935 72.7008 55.4886C72.4401 55.8789 71.9031 55.9928 71.5111 55.7494C69.4581 54.4302 68.2373 52.182 68.2373 49.7388C68.2373 46.3337 70.665 43.3863 74.0044 42.7509L74.5086 42.6525V34.9635C74.5086 34.4904 74.8989 34.1157 75.372 34.1157C75.8468 34.1174 76.2215 34.4921 76.2215 34.9635Z" fill="url(#paint4_linear)"/>
<path d="M82.5083 49.7386C82.5083 53.1591 80.065 56.0911 76.7256 56.7437L76.2214 56.8422V76.1465C76.2214 76.6196 75.8467 77.0098 75.3736 77.0098C74.9005 77.0098 74.5103 76.6196 74.5103 76.1465V56.0099C74.5103 55.5368 74.9005 55.1621 75.3736 55.1621C78.3539 55.1621 80.7816 52.7344 80.7816 49.7369C80.7816 47.8962 79.8526 46.1851 78.29 45.1922C77.8997 44.9315 77.7858 44.3945 78.0292 44.0025C78.1916 43.7591 78.4695 43.6123 78.7614 43.6123C78.9237 43.6123 79.0877 43.6451 79.2172 43.7418C81.2702 45.0644 82.5083 47.3126 82.5083 49.7386Z" fill="url(#paint5_linear)"/>
<path d="M43.324 8.56787C45.3114 8.56787 47.1469 10.3895 47.1918 12.4063C47.2522 14.5128 45.4012 16.3949 43.2791 16.3949C41.233 16.3949 39.4407 14.6182 39.3958 12.5876C39.3509 10.4638 41.2019 8.58168 43.324 8.56787Z" fill="url(#paint6_linear)"/>
<path d="M29.8662 8.58152C31.9883 8.64195 33.6149 10.3583 33.5993 12.5097C33.5838 14.6923 31.9745 16.3637 29.8058 16.3775C27.6233 16.393 25.9069 14.6163 25.9674 12.3733C25.9984 10.2685 27.8201 8.52281 29.8662 8.58152Z" fill="url(#paint7_linear)"/>
<path d="M16.3205 8.58134C18.3373 8.59688 20.1745 10.4168 20.2038 12.4353C20.2487 14.5125 18.3684 16.3946 16.2445 16.3791C14.2122 16.3791 12.4061 14.5885 12.3768 12.5562C12.3319 10.4479 14.2122 8.53645 16.3205 8.58134Z" fill="url(#paint8_linear)"/>
<path d="M89.3836 0H12.4459C5.58755 0 0 5.58755 0 12.4287V77.5713C0 84.4297 5.58755 90 12.4459 90H59.1649H61.5598H89.3836C96.242 90 101.812 84.428 101.812 77.5713V12.4287C101.812 5.58755 96.2402 0 89.3836 0ZM3.90921 12.4287C3.90921 7.73727 7.73728 3.90921 12.4459 3.90921H89.3836C94.075 3.90921 97.903 7.73727 97.903 12.4287V20.5078V21.6716L89.9344 21.7252V15.3951C89.9344 14.4748 89.1867 13.7254 88.2647 13.7254H71.2845C70.4056 13.7254 69.6925 14.4403 69.6925 15.3174V21.6526H3.90921V20.5182V12.4287ZM97.903 77.573C97.903 82.2645 94.075 86.0925 89.3836 86.0925H61.5598H59.1649H12.4459C7.739 86.0925 3.90921 82.2645 3.90921 77.573V24.5293V23.3949H69.9204C70.7837 23.3949 71.4347 22.7387 71.4347 21.8685L71.3742 15.4694L88.1904 15.4849V21.8201C88.1904 22.6886 88.8984 23.3966 89.7686 23.3966H97.903V24.531V77.573Z" fill="url(#paint9_linear)"/>
<defs>
<linearGradient id="paint0_linear" x1="43.7739" y1="51.215" x2="51.7683" y2="51.215" gradientUnits="userSpaceOnUse">
<stop stop-color="#6011CA"/>
<stop offset="0.1959" stop-color="#571CCD"/>
<stop offset="0.535" stop-color="#4038D6"/>
<stop offset="0.9743" stop-color="#1A65E3"/>
<stop offset="1" stop-color="#1868E4"/>
</linearGradient>
<linearGradient id="paint1_linear" x1="50.0454" y1="66.5159" x2="58.0398" y2="66.5159" gradientUnits="userSpaceOnUse">
<stop stop-color="#6011CA"/>
<stop offset="0.1959" stop-color="#571CCD"/>
<stop offset="0.535" stop-color="#4038D6"/>
<stop offset="0.9743" stop-color="#1A65E3"/>
<stop offset="1" stop-color="#1868E4"/>
</linearGradient>
<linearGradient id="paint2_linear" x1="19.3068" y1="44.3978" x2="27.3012" y2="44.3978" gradientUnits="userSpaceOnUse">
<stop stop-color="#6011CA"/>
<stop offset="0.1959" stop-color="#571CCD"/>
<stop offset="0.535" stop-color="#4038D6"/>
<stop offset="0.9743" stop-color="#1A65E3"/>
<stop offset="1" stop-color="#1868E4"/>
</linearGradient>
<linearGradient id="paint3_linear" x1="25.5937" y1="59.7133" x2="33.5726" y2="59.7133" gradientUnits="userSpaceOnUse">
<stop stop-color="#6011CA"/>
<stop offset="0.1959" stop-color="#571CCD"/>
<stop offset="0.535" stop-color="#4038D6"/>
<stop offset="0.9743" stop-color="#1A65E3"/>
<stop offset="1" stop-color="#1868E4"/>
</linearGradient>
<linearGradient id="paint4_linear" x1="68.2397" y1="45.0098" x2="76.2203" y2="45.0098" gradientUnits="userSpaceOnUse">
<stop stop-color="#6011CA"/>
<stop offset="0.1959" stop-color="#571CCD"/>
<stop offset="0.535" stop-color="#4038D6"/>
<stop offset="0.9743" stop-color="#1A65E3"/>
<stop offset="1" stop-color="#1868E4"/>
</linearGradient>
<linearGradient id="paint5_linear" x1="74.5126" y1="60.3316" x2="82.507" y2="60.3316" gradientUnits="userSpaceOnUse">
<stop stop-color="#6011CA"/>
<stop offset="0.1959" stop-color="#571CCD"/>
<stop offset="0.535" stop-color="#4038D6"/>
<stop offset="0.9743" stop-color="#1A65E3"/>
<stop offset="1" stop-color="#1868E4"/>
</linearGradient>
<linearGradient id="paint6_linear" x1="39.3973" y1="12.4862" x2="47.1921" y2="12.4862" gradientUnits="userSpaceOnUse">
<stop stop-color="#6011CA"/>
<stop offset="0.1959" stop-color="#571CCD"/>
<stop offset="0.535" stop-color="#4038D6"/>
<stop offset="0.9743" stop-color="#1A65E3"/>
<stop offset="1" stop-color="#1868E4"/>
</linearGradient>
<linearGradient id="paint7_linear" x1="25.9681" y1="12.4836" x2="33.5983" y2="12.4836" gradientUnits="userSpaceOnUse">
<stop stop-color="#6011CA"/>
<stop offset="0.1959" stop-color="#571CCD"/>
<stop offset="0.535" stop-color="#4038D6"/>
<stop offset="0.9743" stop-color="#1A65E3"/>
<stop offset="1" stop-color="#1868E4"/>
</linearGradient>
<linearGradient id="paint8_linear" x1="12.3783" y1="12.4846" x2="20.2034" y2="12.4846" gradientUnits="userSpaceOnUse">
<stop stop-color="#6011CA"/>
<stop offset="0.1959" stop-color="#571CCD"/>
<stop offset="0.535" stop-color="#4038D6"/>
<stop offset="0.9743" stop-color="#1A65E3"/>
<stop offset="1" stop-color="#1868E4"/>
</linearGradient>
<linearGradient id="paint9_linear" x1="0.0303347" y1="45.0552" x2="101.797" y2="45.0552" gradientUnits="userSpaceOnUse">
<stop stop-color="#6011CA"/>
<stop offset="0.1959" stop-color="#571CCD"/>
<stop offset="0.535" stop-color="#4038D6"/>
<stop offset="0.9743" stop-color="#1A65E3"/>
<stop offset="1" stop-color="#1868E4"/>
</linearGradient>
</defs>
</svg>
