<svg width="94" height="90" viewBox="0 0 94 90" fill="none" xmlns="http://www.w3.org/2000/svg">
<path d="M74.4541 48.4314L62.5005 18.6304H61.9511C61.4601 18.6541 59.2181 20.1745 57.8413 21.3381C56.1898 22.7086 54.7562 24.3822 53.49 25.8584C51.1548 28.5425 49.0155 31.0055 45.913 32.2812L44.6657 32.7644C41.7164 33.8822 39.176 34.8437 39.5107 39.3135C39.7838 43.2828 41.1527 46.7705 43.5731 49.6803C44.5899 50.9324 45.823 52.2633 47.6418 52.2633C48.1755 52.2633 48.6949 52.1576 49.2286 51.9397L53.1647 50.3371C54.7373 49.7151 56.4724 49.4261 58.6323 49.4261C59.9791 49.4261 61.3464 49.5272 62.8668 49.6519L63.08 49.6851C64.5452 49.8129 66.1588 49.9424 67.7345 49.9314C68.2744 49.9314 68.7891 49.9298 69.2549 49.8793C72.7837 49.6472 74.042 49.0772 74.2157 48.8088L74.4541 48.4314ZM71.298 47.8946C70.3996 48.0415 69.4081 48.2025 69.1886 48.2293C67.2229 48.3525 65.0978 48.2072 63.1873 48.0067C61.3464 47.8567 60.0265 47.7557 58.6355 47.7557C56.2167 47.7557 54.2825 48.0904 52.5521 48.8104L48.6113 50.4129C48.2986 50.5376 48.0081 50.5945 47.6703 50.5945C46.5461 50.5945 45.793 49.775 44.8488 48.6177C42.6605 45.9984 41.418 42.828 41.1543 39.1967C40.9285 36.1116 42.2469 35.4674 45.2483 34.3069L46.5398 33.8017C50.0133 32.4012 52.4005 29.6445 54.7104 26.9794C56.0319 25.4384 57.3566 23.8943 58.8644 22.6233L59.0033 22.5223C59.3065 22.306 60.0186 21.7928 60.7085 21.3239L61.5343 20.6608L61.9606 21.6807L72.4237 47.8094L71.298 47.8946Z" fill="url(#paint0_linear)"/>
<path d="M89.7657 38.6567L81.1404 17.5109C86.1043 17.3089 90.8883 20.1903 92.8745 25.0563C94.8591 29.924 93.4555 35.3316 89.7657 38.6567Z" fill="url(#paint1_linear)"/>
<path d="M91.9003 53.5061L81.5856 28.3501L71.1856 2.29567C70.6504 0.923636 69.2768 0 67.7706 0C67.289 0 66.8564 0.0773644 66.4459 0.233672L64.8402 0.852587C59.7657 2.83722 56.2717 6.69912 53.1724 10.1221L52.5219 10.8436C51.9803 11.4341 51.4419 12.0199 50.8562 12.6057C49.9231 13.6224 48.9931 14.6661 48.1169 15.686C46.4591 17.6296 44.9386 19.3553 43.1529 20.7889C40.6583 22.8493 37.6569 23.9893 34.3997 25.2239L33.4792 25.5681C32.9834 25.7529 32.4924 25.9344 32.0014 26.127C28.6195 27.4738 13.2903 33.7593 9.04786 35.6065C8.0216 36.0455 6.98587 36.7923 6.12539 37.7143C4.13286 39.9437 3.45395 42.6593 4.1597 45.5881C1.84035 47.4054 0.258326 49.5211 0.0246542 53.7698C-0.0921818 55.9581 0.207802 58.2917 0.891451 60.5131C2.87608 67.0417 7.76741 70.9368 13.9771 70.9368C14.3497 70.9368 14.7255 70.9226 15.0728 70.8957C16.8569 73.0983 19.2221 74.2619 21.9203 74.2619C22.7729 74.2619 23.5955 74.1466 24.7528 73.8498L28.5942 72.2094C32.6408 78.1601 36.6622 84.0714 40.6946 90C43.8429 88.6422 46.8885 87.327 50.021 85.9771C49.7036 85.4971 49.4605 85.1087 49.1984 84.7329C46.9753 81.5057 44.7602 78.2722 42.5166 75.0576C42.1361 74.5129 42.0335 74.0693 42.2261 73.3761C42.8829 70.9826 42.8135 68.649 42.384 66.3265C44.1902 65.5718 46.0059 64.8076 47.8058 64.0372C52.0972 62.2009 57.0753 60.2795 61.504 59.9732C62.0188 59.9195 62.5903 59.8926 63.1603 59.8926C65.7859 59.8926 68.481 60.3063 71.0878 60.7057L71.4856 60.7673C73.1498 61.0152 75.0333 61.2978 76.8538 61.4636C77.6243 61.5362 78.349 61.571 79.0752 61.571C82.1603 61.571 85.2296 60.9142 89.3268 59.3795C90.4699 58.9564 91.3635 58.1101 91.8372 57.0002C92.3251 55.906 92.3503 54.6303 91.9003 53.5061ZM88.299 55.4087C88.2137 55.576 88.089 55.7008 87.9579 55.7529C83.5197 57.3933 80.4425 57.897 77.2138 57.6049C75.597 57.4438 73.9913 57.2054 72.2214 56.937L72.043 56.9054C68.8758 56.4255 66.0149 56.0276 63.0766 56.0276C62.4403 56.0276 61.7756 56.0292 61.1788 56.086C56.1643 56.4602 50.8278 58.5064 46.2712 60.4579C45.2607 60.8936 44.2486 61.3215 43.2397 61.751C42.2261 62.1804 41.2125 62.6083 40.2241 63.0362L23.4882 70.1616C22.9119 70.3179 22.4003 70.3937 21.9203 70.3937C20.1552 70.3937 18.7153 69.5269 17.6416 67.8154L16.969 66.7465L15.7091 66.9423C15.2339 67.0133 14.6955 67.0496 14.1065 67.0496C9.56889 67.0496 6.10486 64.2535 4.60494 59.3779C4.06655 57.6017 3.81709 55.6818 3.89761 53.9766C4.05707 51.0826 4.80546 49.8416 7.53531 47.9406L8.7984 47.0707L8.2458 45.6529C7.41532 43.4725 7.65846 41.8289 9.03839 40.3195C9.47258 39.8332 10.0473 39.4163 10.5873 39.1953C14.8328 37.3559 30.0736 31.0957 33.4287 29.7553C33.7824 29.6132 34.1344 29.4806 34.4881 29.3464C34.8386 29.2121 35.1875 29.0811 35.4654 28.9643L35.8712 28.8427C39.1884 27.578 42.6193 26.2691 45.6365 23.8219C47.5279 22.2762 49.1131 20.4684 50.6462 18.7206L51.1341 18.1569C51.944 17.2065 52.8092 16.2291 53.6713 15.3134C54.4055 14.5492 55.116 13.7851 55.7712 13.0446L56.0743 12.7414C59 9.49687 62.0282 6.14336 66.3606 4.46029L67.6916 3.98979L78 29.8105L88.2879 54.9934C88.3384 55.1434 88.3384 55.3029 88.299 55.4087Z" fill="url(#paint2_linear)"/>
<defs>
<linearGradient id="paint0_linear" x1="39.4914" y1="35.4675" x2="74.4488" y2="35.4675" gradientUnits="userSpaceOnUse">
<stop stop-color="#6011CA"/>
<stop offset="0.1959" stop-color="#571CCD"/>
<stop offset="0.535" stop-color="#4038D6"/>
<stop offset="0.9743" stop-color="#1A65E3"/>
<stop offset="1" stop-color="#1868E4"/>
</linearGradient>
<linearGradient id="paint1_linear" x1="81.1441" y1="28.0918" x2="93.7743" y2="28.0918" gradientUnits="userSpaceOnUse">
<stop stop-color="#6011CA"/>
<stop offset="0.1959" stop-color="#571CCD"/>
<stop offset="0.535" stop-color="#4038D6"/>
<stop offset="0.9743" stop-color="#1A65E3"/>
<stop offset="1" stop-color="#1868E4"/>
</linearGradient>
<linearGradient id="paint2_linear" x1="0.0274771" y1="45.0552" x2="92.2072" y2="45.0552" gradientUnits="userSpaceOnUse">
<stop stop-color="#6011CA"/>
<stop offset="0.1959" stop-color="#571CCD"/>
<stop offset="0.535" stop-color="#4038D6"/>
<stop offset="0.9743" stop-color="#1A65E3"/>
<stop offset="1" stop-color="#1868E4"/>
</linearGradient>
</defs>
</svg>
