<svg width="26" height="26" viewBox="0 0 26 26" fill="none" xmlns="http://www.w3.org/2000/svg">
<path d="M25.1549 12.7581C25.1549 5.80985 19.521 0.180664 12.5774 0.180664C5.62919 0.180664 0 5.80985 0 12.7581C0 19.0342 4.59784 24.2381 10.6122 25.1807V16.3945H7.41833V12.7589H10.6122V9.98634C10.6122 6.83491 12.487 5.09451 15.361 5.09451C16.7374 5.09451 18.1783 5.33977 18.1783 5.33977V8.4346H16.5896C15.03 8.4346 14.5427 9.40542 14.5427 10.3998V12.7581H18.0305L17.4701 16.3938H14.5427V25.1799C20.5523 24.2374 25.1549 19.0334 25.1549 12.7573V12.7581Z" fill="white"/>
</svg>
