<svg width="25" height="26" viewBox="0 0 25 26" fill="none" xmlns="http://www.w3.org/2000/svg">
<path d="M16.4062 12.6807C16.4062 13.7167 15.9947 14.7102 15.2621 15.4428C14.5296 16.1754 13.536 16.5869 12.5 16.5869C11.464 16.5869 10.4704 16.1754 9.73786 15.4428C9.0053 14.7102 8.59375 13.7167 8.59375 12.6807C8.59375 12.458 8.61719 12.2406 8.65755 12.0296H7.29167V17.234C7.29167 17.596 7.58463 17.889 7.94661 17.889H17.0547C17.2282 17.8887 17.3944 17.8195 17.517 17.6967C17.6395 17.5739 17.7083 17.4075 17.7083 17.234V12.0296H16.3424C16.3828 12.2406 16.4062 12.458 16.4062 12.6807V12.6807ZM12.5 15.2848C12.8421 15.2847 13.1808 15.2173 13.4968 15.0863C13.8128 14.9553 14.0999 14.7634 14.3417 14.5214C14.5835 14.2795 14.7753 13.9923 14.9061 13.6762C15.037 13.3602 15.1043 13.0214 15.1042 12.6794C15.1041 12.3373 15.0366 11.9986 14.9056 11.6826C14.7747 11.3666 14.5827 11.0795 14.3408 10.8377C14.0988 10.5958 13.8116 10.4041 13.4956 10.2732C13.1795 10.1424 12.8408 10.0751 12.4987 10.0752C11.8079 10.0754 11.1454 10.35 10.657 10.8386C10.1686 11.3272 9.89436 11.9898 9.89453 12.6807C9.8947 13.3715 10.1693 14.034 10.6579 14.5224C11.1465 15.0107 11.8092 15.285 12.5 15.2848V15.2848ZM15.625 9.94629H17.1862C17.2899 9.94629 17.3894 9.90518 17.4629 9.83196C17.5363 9.75874 17.5778 9.65938 17.5781 9.55566V7.99447C17.5781 7.89052 17.5368 7.79083 17.4633 7.71733C17.3898 7.64383 17.2901 7.60254 17.1862 7.60254H15.625C15.5211 7.60254 15.4214 7.64383 15.3479 7.71733C15.2744 7.79083 15.2331 7.89052 15.2331 7.99447V9.55566C15.2344 9.77051 15.4102 9.94629 15.625 9.94629V9.94629ZM12.5 0.180664C9.18479 0.180664 6.00537 1.49762 3.66116 3.84183C1.31696 6.18603 0 9.36546 0 12.6807C0 15.9959 1.31696 19.1753 3.66116 21.5195C6.00537 23.8637 9.18479 25.1807 12.5 25.1807C14.1415 25.1807 15.767 24.8573 17.2835 24.2292C18.8001 23.601 20.1781 22.6802 21.3388 21.5195C22.4996 20.3588 23.4203 18.9808 24.0485 17.4642C24.6767 15.9476 25 14.3222 25 12.6807C25 11.0391 24.6767 9.41369 24.0485 7.89712C23.4203 6.38055 22.4996 5.00256 21.3388 3.84183C20.1781 2.6811 18.8001 1.76035 17.2835 1.13217C15.767 0.503986 14.1415 0.180664 12.5 0.180664V0.180664ZM19.0104 17.7445C19.0104 18.54 18.3594 19.1911 17.5638 19.1911H7.4362C6.64062 19.1911 5.98958 18.54 5.98958 17.7445V7.61686C5.98958 6.82129 6.64062 6.17025 7.4362 6.17025H17.5638C18.3594 6.17025 19.0104 6.82129 19.0104 7.61686V17.7445V17.7445Z" fill="white"/>
</svg>
