<svg width="23" height="24" viewBox="0 0 23 24" fill="none" xmlns="http://www.w3.org/2000/svg">
<path d="M22.7264 17.7292L22.726 17.7293C22.7377 18.1031 22.7272 18.4773 22.6945 18.8499L22.694 18.8553L22.694 18.8553C22.6338 19.3776 22.3765 19.8572 21.9746 20.1962L21.9733 20.1973C19.6366 22.1359 16.6963 23.1979 13.6601 23.2L13.6594 23.2C11.4785 23.1935 9.33489 22.6333 7.42971 21.5717C5.52457 20.5102 3.92023 18.9822 2.76716 17.1311L22.7264 17.7292ZM22.7264 17.7292L22.7253 17.717M22.7264 17.7292L22.7253 17.717M22.7253 17.717C22.6842 17.275 22.5064 16.8568 22.2165 16.5206C21.9275 16.1855 21.5416 15.9486 21.1122 15.8425L21.0914 15.8365C19.6817 15.4241 18.4599 15.0668 17.1697 14.7084C16.7273 14.5742 16.2546 14.5774 15.8139 14.7174L15.8139 14.7173M22.7253 17.717L15.8139 14.7173M15.8139 14.7173L15.808 14.7194M15.8139 14.7173L15.808 14.7194M15.808 14.7194C15.3367 14.8855 14.9312 15.1985 14.6511 15.6123C14.4977 15.8281 14.3658 16.0584 14.2572 16.2999L14.257 16.2998M15.808 14.7194L14.257 16.2998M14.257 16.2998L14.2533 16.3093M14.257 16.2998L14.2533 16.3093M14.2533 16.3093C14.1441 16.5894 13.9215 17.2008 13.7751 17.6055C13.6819 17.6047 13.5888 17.599 13.4962 17.5885L13.4961 17.5885M14.2533 16.3093L13.4961 17.5885M13.4961 17.5885C12.8644 17.5174 9.70797 17.0353 7.48465 14.4179C7.67974 14.1257 7.88258 13.806 8.10671 13.4383L8.10675 13.4383M13.4961 17.5885L8.10675 13.4383M8.10675 13.4383L8.10888 13.4346M8.10675 13.4383L8.10888 13.4346M8.10888 13.4346C8.29009 13.1226 8.43019 12.7885 8.5257 12.4405M8.10888 13.4346L8.5257 12.4405M8.5257 12.4405C8.64858 12.0342 8.65115 11.601 8.53307 11.1932C8.41484 10.785 8.18075 10.4198 7.85917 10.1419M8.5257 12.4405L4.39254 7.5298C4.39278 7.52998 4.39303 7.53016 4.39327 7.53034C5.06434 8.01754 7.57227 9.88876 7.85917 10.1419M7.85917 10.1419C7.85948 10.1421 7.85978 10.1424 7.86008 10.1427L7.72755 10.2925L7.85824 10.1411C7.85855 10.1413 7.85886 10.1416 7.85917 10.1419ZM2.43447 8.58254C2.61818 8.44654 2.83966 8.37111 3.06815 8.36669C3.27385 8.36834 3.47359 8.43603 3.63793 8.55981L3.63791 8.55984L3.64079 8.56193C4.03768 8.84996 4.82888 9.43796 5.54895 9.97873C6.27444 10.5236 6.91282 11.0094 7.0151 11.0999L7.01505 11.0999L7.01911 11.1033C7.15794 11.2196 7.25891 11.3748 7.3091 11.5488C7.35929 11.7228 7.35643 11.9079 7.30088 12.0803L7.30066 12.0802L7.29816 12.0894C7.23303 12.3305 7.13732 12.5623 7.01338 12.7791C6.69938 13.2943 6.43084 13.7075 6.16815 14.0805L5.9834 14.3428L5.89912 14.4625L5.98768 14.579L6.18186 14.8345L6.18189 14.8346C8.72832 18.183 12.5993 18.7723 13.3525 18.8571C13.6803 18.8965 14.0119 18.8921 14.3386 18.844L14.3386 18.8441L14.3439 18.8432L14.5949 18.7993L14.7094 18.7793L14.7487 18.6699L14.8347 18.4304L14.8348 18.43L14.8373 18.4231C14.874 18.3211 15.2837 17.1824 15.4418 16.7752C15.5143 16.6257 15.5991 16.4824 15.6953 16.3468L15.6954 16.3469L15.6996 16.3405C15.8221 16.1532 16.001 16.0097 16.2104 15.9309C16.4065 15.8719 16.6158 15.8728 16.8115 15.9337L16.8115 15.9337L16.8144 15.9346L16.8202 15.9363L16.8202 15.9363L16.8232 15.9372C18.1139 16.2958 19.3385 16.6538 20.7609 17.07L20.7684 17.0722L20.776 17.0737C20.9548 17.1113 21.117 17.2049 21.2389 17.341C21.3599 17.4761 21.4349 17.646 21.4534 17.8263C21.4575 17.916 21.4533 18.4632 21.4253 18.7123L21.6241 18.7346L21.4254 18.7118C21.4027 18.9088 21.3058 19.0898 21.1544 19.2179C19.4996 20.5975 17.4943 21.4907 15.3619 21.7981L15.3615 21.7982C13.1313 22.1239 10.8544 21.792 8.80995 20.8432C6.76547 19.8944 5.04211 18.3699 3.851 16.4564L3.8509 16.4562C2.48489 14.2662 1.88072 11.6863 2.13234 9.11748L2.1324 9.11677C2.14234 9.01153 2.17436 8.90956 2.22637 8.81753C2.27839 8.7255 2.34923 8.64548 2.43427 8.58269L2.43447 8.58254ZM1.68981 7.54566C1.45697 7.71345 1.26266 7.92906 1.11992 8.17806C0.976811 8.4277 0.888852 8.70509 0.861959 8.99157C0.582722 11.8405 1.25247 14.7019 2.7671 17.131L1.68981 7.54566Z" fill="black" stroke="black" stroke-width="0.4"/>
<path d="M3.8474 2.1964H3.84604C3.76956 2.20773 3.69161 2.20508 3.61599 2.18853C3.53402 2.17058 3.4564 2.13666 3.38755 2.08868C3.31871 2.04071 3.26001 1.97963 3.21479 1.90895C3.16958 1.83826 3.13875 1.75936 3.12406 1.67674C3.10938 1.59413 3.11112 1.50943 3.1292 1.4275C3.14728 1.34556 3.18134 1.26799 3.22943 1.19923C3.27752 1.13047 3.33869 1.07186 3.40945 1.02677C3.48021 0.981676 3.55917 0.950976 3.64181 0.936428C5.69692 0.574193 7.81408 0.938521 9.62993 1.9669C11.4457 2.99524 12.847 4.62345 13.5933 6.57215C13.8437 7.22068 14.0161 7.89668 14.107 8.58592M3.8474 2.1964L3.82991 1.99644L3.83029 1.99851L3.86524 2.19325C3.86503 2.19329 3.86483 2.19333 3.86462 2.19336M3.8474 2.1964L3.8612 2.19396M3.8474 2.1964L3.8612 2.19396M14.107 8.58592L13.9087 8.61205L14.107 8.58588C14.107 8.58589 14.107 8.58591 14.107 8.58592ZM14.107 8.58592C14.1291 8.75372 14.0837 8.92344 13.9808 9.05779C13.8778 9.19215 13.7258 9.28014 13.558 9.30241L13.5576 9.30245C13.5297 9.30611 13.5016 9.30793 13.4735 9.30791H13.4734C13.3187 9.30773 13.1694 9.25141 13.0531 9.14943C12.9369 9.04744 12.8616 8.90671 12.8413 8.7534L12.8412 8.75326C12.7635 8.16369 12.616 7.58544 12.4019 7.03066L12.4017 7.03013C11.7618 5.35796 10.5598 3.96067 9.00206 3.0781C7.44429 2.19553 5.62788 1.88272 3.86462 2.19336M3.86462 2.19336L3.8612 2.19396M3.86462 2.19336L3.8612 2.19396" fill="black" stroke="black" stroke-width="0.4"/>
<path d="M9.24818 9.16094L9.41325 9.04801L9.24818 9.16094C9.29559 9.23025 9.35622 9.28952 9.42658 9.33536C9.49694 9.3812 9.57565 9.41271 9.65821 9.42807C9.74077 9.44344 9.82554 9.44237 9.90768 9.42492C9.98983 9.40746 10.0677 9.37398 10.1369 9.32637L10.0235 9.16161L10.1369 9.32637C10.2061 9.27877 10.2652 9.21798 10.3108 9.14749C10.3565 9.07701 10.3878 8.99821 10.4029 8.91561L10.2062 8.87955L10.4029 8.91561C10.418 8.83338 10.4167 8.74901 10.3993 8.66726C10.3434 8.40037 10.266 8.13846 10.1677 7.88411C9.74143 6.74971 8.93779 5.79654 7.89172 5.18473C6.84553 4.57284 5.62061 4.33969 4.42279 4.52444C4.33997 4.53683 4.26039 4.5654 4.1886 4.60852C4.11665 4.65173 4.05392 4.7087 4.00401 4.77618C3.9541 4.84365 3.91799 4.92031 3.89773 5.00175C3.87747 5.0832 3.87348 5.16784 3.88596 5.25084C3.89845 5.33383 3.92718 5.41355 3.97051 5.48543C4.01384 5.55731 4.07091 5.61994 4.13847 5.66974C4.20603 5.71954 4.28274 5.75553 4.36422 5.77565C4.4457 5.79578 4.53035 5.79964 4.61332 5.78701L4.6137 5.78696C5.52365 5.64674 6.45412 5.82421 7.24858 6.2895C8.04303 6.75479 8.65299 7.47952 8.97583 8.34174L8.97582 8.34175L8.97656 8.34365C9.05027 8.53454 9.10836 8.73109 9.15025 8.93138L9.15027 8.93146C9.16749 9.01365 9.20076 9.09163 9.24818 9.16094Z" fill="black" stroke="black" stroke-width="0.4"/>
</svg>
