<svg width="25" height="26" viewBox="0 0 25 26" fill="none" xmlns="http://www.w3.org/2000/svg">
<path d="M12.5 0.180664C5.59436 0.180664 0 5.77583 0 12.6807C0 19.5855 5.59516 25.1807 12.5 25.1807C19.4056 25.1807 25 19.5855 25 12.6807C25 5.77583 19.4048 0.180664 12.5 0.180664ZM18.6395 8.74437L16.5879 18.4121C16.4363 19.0976 16.0282 19.2637 15.4589 18.9411L12.3339 16.6379L10.8266 18.0895C10.6605 18.2557 10.5194 18.3968 10.1968 18.3968L10.4185 15.2161L16.2097 9.98389C16.4621 9.76212 16.154 9.63631 15.821 9.85808L8.66371 14.3637L5.57903 13.4008C4.90887 13.1895 4.89355 12.7307 5.72016 12.4081L17.7718 7.7605C18.3315 7.55889 18.8202 7.89679 18.6387 8.74357L18.6395 8.74437Z" fill="white"/>
</svg>
