<svg width="26" height="26" viewBox="0 0 26 26" fill="none" xmlns="http://www.w3.org/2000/svg">
<path d="M12.6548 0.180664C5.75114 0.180664 0.154785 5.77702 0.154785 12.6807C0.154785 19.5843 5.75114 25.1807 12.6548 25.1807C19.5584 25.1807 25.1548 19.5843 25.1548 12.6807C25.1548 5.77702 19.5584 0.180664 12.6548 0.180664ZM17.4621 14.2835C17.4621 14.2835 18.5675 15.3747 18.8397 15.8812C18.8475 15.8916 18.8514 15.902 18.854 15.9072C18.9647 16.0934 18.9907 16.238 18.936 16.346C18.8449 16.5257 18.5324 16.6143 18.4256 16.6221H16.4725C16.3371 16.6221 16.0532 16.5869 15.7095 16.3499C15.4451 16.165 15.1847 15.8617 14.9308 15.5661C14.5519 15.126 14.2238 14.7458 13.8931 14.7458C13.8511 14.7457 13.8093 14.7523 13.7694 14.7653C13.5194 14.846 13.1991 15.2028 13.1991 16.1533C13.1991 16.4502 12.9647 16.6208 12.7993 16.6208H11.9048C11.6001 16.6208 10.0129 16.514 8.60661 15.0309C6.88525 13.2145 5.33577 9.57129 5.32275 9.53743C5.2251 9.30176 5.42692 9.17546 5.64697 9.17546H7.61963C7.88265 9.17546 7.96859 9.33561 8.02848 9.47754C8.09879 9.6429 8.35661 10.3005 8.77979 11.04C9.46598 12.2458 9.88656 12.7354 10.2238 12.7354C10.287 12.7346 10.3491 12.7185 10.4048 12.6885C10.8449 12.4437 10.7629 10.8747 10.7433 10.5492C10.7433 10.488 10.742 9.84733 10.5168 9.54004C10.3553 9.31738 10.0806 9.23275 9.9139 9.2015C9.98136 9.10841 10.0702 9.03294 10.173 8.98144C10.4751 8.8304 11.0194 8.80827 11.5597 8.80827H11.8605C12.4465 8.81608 12.5975 8.85384 12.8097 8.90723C13.2394 9.01009 13.2485 9.28743 13.2108 10.2367C13.1991 10.5062 13.1873 10.8109 13.1873 11.1702C13.1873 11.2484 13.1834 11.3317 13.1834 11.4202C13.1704 11.9033 13.1548 12.4515 13.4959 12.6768C13.5404 12.7047 13.5918 12.7195 13.6444 12.7197C13.7629 12.7197 14.1196 12.7197 15.0858 11.0622C15.3837 10.5287 15.6427 9.97425 15.8605 9.40332C15.88 9.36946 15.9373 9.2653 16.005 9.22493C16.055 9.19946 16.1104 9.1865 16.1665 9.18717H18.4855C18.7381 9.18717 18.9113 9.22493 18.9438 9.32259C19.0011 9.47754 18.9334 9.9502 17.8748 11.3838L17.4022 12.0075C16.4425 13.2653 16.4425 13.3291 17.4621 14.2835Z" fill="white"/>
</svg>
